<svg width="402" height="874" viewBox="0 0 402 874" fill="none" xmlns="http://www.w3.org/2000/svg">
<g filter="url(#filter0_gnf_409_50)">
<circle cx="21" cy="308" r="223" fill="#E8B4B4"/>
</g>
<g filter="url(#filter1_gnf_409_50)">
<circle cx="438" cy="603" r="226" fill="#E8B4B4"/>
</g>
<path d="M68.229 501H65.157L84.741 458.12H88.645L108.229 501H105.157L98.821 487.368H74.501L68.229 501ZM84.293 466.184L75.717 484.744H97.605L89.029 466.184L86.725 460.936H86.469L84.293 466.184ZM131.809 501H128.993V460.744H110.753V458.12H149.985V460.744H131.809V501ZM187.539 501H156.179V458.12H187.539V460.744H159.059V478.152H186.579V480.712H159.059V498.376H187.539V501ZM198.652 501H195.772V458.12H198.972L223.868 490.248L228.86 496.776H229.116L229.052 490.312V458.12H231.868V501H228.732L204.156 469.32L198.844 462.408H198.588L198.652 469.32V501ZM259.149 501H256.333V460.744H238.092V458.12H277.325V460.744H259.149V501ZM286.399 501H283.519V458.12H286.399V501ZM295.472 501H292.4L311.984 458.12H315.888L335.472 501H332.4L326.064 487.368H301.744L295.472 501ZM311.536 466.184L302.96 484.744H324.848L316.272 466.184L313.968 460.936H313.712L311.536 466.184Z" fill="black"/>
<path d="M80.0827 562.2H113.363L114.003 574.872H112.851C111.059 570.563 109.181 567.619 107.219 566.04C105.256 564.419 102.376 563.608 98.5787 563.608H96.3387V583.384H98.5147C100.52 583.384 102.205 582.637 103.571 581.144C104.936 579.608 105.896 577.56 106.451 575H107.411V593.944H106.323C105.555 590.744 104.509 588.461 103.187 587.096C101.907 585.731 100.136 585.048 97.8747 585.048H96.3387V605.592H98.7707C102.696 605.592 106.024 604.419 108.755 602.072C111.528 599.725 113.427 596.717 114.451 593.048H115.731L115.219 607H80.0827V605.592H83.8587V563.608H80.0827V562.2ZM140.131 606.296C142.265 606.296 144.142 605.72 145.763 604.568C147.427 603.416 148.259 601.688 148.259 599.384C148.259 597.037 147.363 595.245 145.571 594.008C143.822 592.771 141.305 591.704 138.019 590.808C134.777 589.869 132.409 589.059 130.915 588.376C129.465 587.693 128.078 586.797 126.755 585.688C124.11 583.469 122.787 580.035 122.787 575.384C122.787 571.587 124.131 568.323 126.819 565.592C129.55 562.861 133.262 561.496 137.955 561.496C140.217 561.496 142.563 561.837 144.995 562.52C147.47 563.16 149.006 563.48 149.603 563.48C150.201 563.48 150.734 563.053 151.203 562.2H151.907L152.355 575.128H151.331C149.283 571.416 147.129 568.451 144.867 566.232C142.649 563.971 140.217 562.84 137.571 562.84C134.969 562.84 132.942 563.459 131.491 564.696C130.041 565.891 129.315 567.512 129.315 569.56C129.315 571.565 130.169 573.123 131.875 574.232C133.625 575.299 135.758 576.173 138.275 576.856C140.793 577.539 142.435 578.008 143.203 578.264C144.014 578.52 144.995 578.883 146.147 579.352C147.342 579.779 148.302 580.248 149.027 580.76C149.795 581.229 150.585 581.848 151.395 582.616C152.249 583.341 152.91 584.152 153.379 585.048C154.531 587.096 155.107 589.528 155.107 592.344C155.107 596.952 153.657 600.664 150.755 603.48C147.897 606.253 144.121 607.64 139.427 607.64C136.995 607.64 134.201 607.32 131.043 606.68C127.929 606.04 126.201 605.72 125.859 605.72C125.262 605.72 124.686 606.36 124.131 607.64H123.235L122.595 592.408H123.683C125.561 596.12 127.95 599.363 130.851 602.136C133.795 604.909 136.889 606.296 140.131 606.296ZM196.815 562.2L197.455 578.264H196.239C194.362 572.589 192.698 568.728 191.247 566.68C189.797 564.589 187.706 563.544 184.975 563.544H184.207V605.656H189.647V607H166.287V605.656H171.727V563.544H170.895C168.165 563.544 166.053 564.632 164.559 566.808C163.066 568.941 161.423 572.76 159.631 578.264H158.415L159.055 562.2H196.815ZM202.423 562.2H235.703L236.343 574.872H235.191C233.399 570.563 231.521 567.619 229.559 566.04C227.596 564.419 224.716 563.608 220.919 563.608H218.679V583.384H220.855C222.86 583.384 224.545 582.637 225.911 581.144C227.276 579.608 228.236 577.56 228.791 575H229.751V593.944H228.663C227.895 590.744 226.849 588.461 225.527 587.096C224.247 585.731 222.476 585.048 220.215 585.048H218.679V605.592H221.111C225.036 605.592 228.364 604.419 231.095 602.072C233.868 599.725 235.767 596.717 236.791 593.048H238.071L237.559 607H202.423V605.592H206.199V563.608H202.423V562.2ZM256.676 562.2H276.196V563.416H272.676V605.784H276.196V607H256.676V605.784H260.196V563.416H256.676V562.2ZM316.866 563.416V607H307.906L285.954 565.592V605.784H289.474V607H280.706V605.784H284.226V563.416H280.706V562.2H298.37L315.138 594.328V563.416H311.618V562.2H320.386V563.416H316.866Z" fill="black"/>
<path d="M76.0615 700H73.1815V657.12H103.966V659.744H76.0615V678.432H103.006V680.992H76.0615V700ZM114.779 700H111.899V657.12H114.779V700ZM155.852 700H124.492V657.12H155.852V659.744H127.372V677.152H154.892V679.712H127.372V697.376H155.852V700ZM183.22 700.64C177.119 700.64 172.105 698.613 168.18 694.56C164.255 690.507 162.292 685.173 162.292 678.56C162.292 671.947 164.255 666.613 168.18 662.56C172.105 658.507 177.119 656.48 183.22 656.48C188.511 656.48 192.927 657.909 196.468 660.768C200.009 663.584 201.78 667.275 201.78 671.84V672.544H198.772V671.84C198.772 667.872 197.407 664.779 194.676 662.56C191.945 660.341 188.127 659.232 183.22 659.232C177.588 659.232 173.172 660.917 169.972 664.288C166.815 667.659 165.236 672.416 165.236 678.56C165.236 684.704 166.815 689.461 169.972 692.832C173.172 696.16 177.588 697.824 183.22 697.824C188.127 697.824 191.945 696.715 194.676 694.496C197.407 692.277 198.772 689.184 198.772 685.216V684.576H201.78V685.216C201.78 689.824 200.009 693.557 196.468 696.416C192.927 699.232 188.511 700.64 183.22 700.64ZM209.161 700H206.089L225.674 657.12H229.578L249.162 700H246.09L239.754 686.368H215.434L209.161 700ZM225.226 665.184L216.649 683.744H238.538L229.962 665.184L227.658 659.936H227.402L225.226 665.184ZM258.149 700H255.269V657.12H275.365C279.674 657.12 283.173 658.208 285.861 660.384C288.549 662.56 289.893 665.547 289.893 669.344C289.893 672.971 288.613 675.872 286.053 678.048C283.536 680.224 280.272 681.312 276.261 681.312V681.568C278.352 682.165 280.208 683.744 281.829 686.304L290.469 700H287.269L279.013 687.136C277.861 685.216 276.496 683.851 274.917 683.04C273.381 682.229 271.184 681.824 268.325 681.824H258.149V700ZM258.149 659.744V679.328H275.365C283.088 679.328 286.949 676.064 286.949 669.536C286.949 663.008 283.088 659.744 275.365 659.744H258.149ZM329.034 700H297.674V657.12H329.034V659.744H300.554V677.152H328.074V679.712H300.554V697.376H329.034V700Z" fill="black"/>
<path d="M106.731 777.832C106.731 786.621 104.256 792.744 99.307 796.2C94.7417 799.4 88.4697 801 80.491 801H62.379V799.784H66.603V757.416H62.379V756.2H82.155C90.347 756.2 96.491 757.885 100.587 761.256C104.683 764.584 106.731 770.109 106.731 777.832ZM79.083 799.784H81.515C85.8243 799.784 88.8963 798.269 90.731 795.24C92.6083 792.168 93.547 787.048 93.547 779.88V776.168C93.547 766.568 91.7123 760.787 88.043 758.824C86.2937 757.885 83.819 757.416 80.619 757.416H79.083V799.784ZM111.972 756.2H145.252L145.892 768.872H144.74C142.948 764.563 141.07 761.619 139.108 760.04C137.145 758.419 134.265 757.608 130.468 757.608H128.228V777.384H130.404C132.409 777.384 134.094 776.637 135.46 775.144C136.825 773.608 137.785 771.56 138.34 769H139.3V787.944H138.212C137.444 784.744 136.398 782.461 135.076 781.096C133.796 779.731 132.025 779.048 129.764 779.048H128.228V799.592H130.66C134.585 799.592 137.913 798.419 140.644 796.072C143.417 793.725 145.316 790.717 146.34 787.048H147.62L147.108 801H111.972V799.592H115.748V757.608H111.972V756.2ZM190.612 756.2L191.252 772.264H190.036C188.158 766.589 186.494 762.728 185.044 760.68C183.593 758.589 181.502 757.544 178.772 757.544H178.004V799.656H183.444V801H160.084V799.656H165.524V757.544H164.692C161.961 757.544 159.849 758.632 158.356 760.808C156.862 762.941 155.22 766.76 153.428 772.264H152.212L152.852 756.2H190.612ZM215.773 799.784L211.101 785.96H198.429L193.501 799.784H198.301V801H188.509V799.784H191.517L207.837 755.816H213.085L229.213 799.784H232.157V801H211.229V799.784H215.773ZM205.021 767.784L199.005 784.552H210.589L205.021 767.784ZM235.186 756.2H258.226V757.608H251.442V799.592H253.747C257.373 799.592 260.253 798.483 262.386 796.264C264.562 794.045 266.76 790.632 268.979 786.024H270.323L269.106 801H235.186V799.592H238.962V757.608H235.186V756.2ZM274.847 756.2H294.367V757.416H290.847V799.784H294.367V801H274.847V799.784H278.367V757.416H274.847V756.2ZM314.621 787.368C314.621 791.293 315.283 794.301 316.605 796.392C317.971 798.483 320.403 799.528 323.901 799.528C327.4 799.528 330.088 798.44 331.965 796.264C333.843 794.088 334.781 790.781 334.781 786.344V757.416H330.621V756.2H339.965V757.416H336.445V785.896C336.445 791.187 335.272 795.133 332.925 797.736C330.579 800.339 326.419 801.64 320.445 801.64C314.515 801.64 309.971 800.403 306.813 797.928C303.699 795.453 302.141 791.208 302.141 785.192V757.416H298.621V756.2H318.781V757.416H314.621V787.368Z" fill="black"/>
<defs>
<filter id="filter0_gnf_409_50" x="-454.7" y="-167.7" width="951.4" height="951.4" filterUnits="userSpaceOnUse" color-interpolation-filters="sRGB">
<feFlood flood-opacity="0" result="BackgroundImageFix"/>
<feBlend mode="normal" in="SourceGraphic" in2="BackgroundImageFix" result="shape"/>
<feTurbulence type="fractalNoise" baseFrequency="0.1666666716337204 0.1666666716337204" numOctaves="3" seed="6119" />
<feDisplacementMap in="shape" scale="19" xChannelSelector="R" yChannelSelector="G" result="displacedImage" width="100%" height="100%" />
<feMerge result="effect1_texture_409_50">
<feMergeNode in="displacedImage"/>
</feMerge>
<feTurbulence type="fractalNoise" baseFrequency="0.58823525905609131 0.58823525905609131" stitchTiles="stitch" numOctaves="3" result="noise" seed="8465" />
<feColorMatrix in="noise" type="luminanceToAlpha" result="alphaNoise" />
<feComponentTransfer in="alphaNoise" result="coloredNoise1">
<feFuncA type="discrete" tableValues="1 1 1 1 1 1 1 1 1 1 1 1 1 1 1 1 1 1 1 1 1 1 1 1 1 1 1 1 1 1 1 1 1 1 1 1 1 1 1 1 1 1 1 1 1 1 1 1 1 1 1 0 0 0 0 0 0 0 0 0 0 0 0 0 0 0 0 0 0 0 0 0 0 0 0 0 0 0 0 0 0 0 0 0 0 0 0 0 0 0 0 0 0 0 0 0 0 0 0 0 "/>
</feComponentTransfer>
<feComposite operator="in" in2="effect1_texture_409_50" in="coloredNoise1" result="noise1Clipped" />
<feFlood flood-color="rgba(0, 0, 0, 0.25)" result="color1Flood" />
<feComposite operator="in" in2="noise1Clipped" in="color1Flood" result="color1" />
<feMerge result="effect2_noise_409_50">
<feMergeNode in="effect1_texture_409_50" />
<feMergeNode in="color1" />
</feMerge>
<feGaussianBlur stdDeviation="126.35" result="effect3_foregroundBlur_409_50"/>
</filter>
<filter id="filter1_gnf_409_50" x="-40.7" y="124.3" width="957.4" height="957.4" filterUnits="userSpaceOnUse" color-interpolation-filters="sRGB">
<feFlood flood-opacity="0" result="BackgroundImageFix"/>
<feBlend mode="normal" in="SourceGraphic" in2="BackgroundImageFix" result="shape"/>
<feTurbulence type="fractalNoise" baseFrequency="0.1666666716337204 0.1666666716337204" numOctaves="3" seed="6119" />
<feDisplacementMap in="shape" scale="19" xChannelSelector="R" yChannelSelector="G" result="displacedImage" width="100%" height="100%" />
<feMerge result="effect1_texture_409_50">
<feMergeNode in="displacedImage"/>
</feMerge>
<feTurbulence type="fractalNoise" baseFrequency="0.58823525905609131 0.58823525905609131" stitchTiles="stitch" numOctaves="3" result="noise" seed="8465" />
<feColorMatrix in="noise" type="luminanceToAlpha" result="alphaNoise" />
<feComponentTransfer in="alphaNoise" result="coloredNoise1">
<feFuncA type="discrete" tableValues="1 1 1 1 1 1 1 1 1 1 1 1 1 1 1 1 1 1 1 1 1 1 1 1 1 1 1 1 1 1 1 1 1 1 1 1 1 1 1 1 1 1 1 1 1 1 1 1 1 1 1 0 0 0 0 0 0 0 0 0 0 0 0 0 0 0 0 0 0 0 0 0 0 0 0 0 0 0 0 0 0 0 0 0 0 0 0 0 0 0 0 0 0 0 0 0 0 0 0 0 "/>
</feComponentTransfer>
<feComposite operator="in" in2="effect1_texture_409_50" in="coloredNoise1" result="noise1Clipped" />
<feFlood flood-color="rgba(0, 0, 0, 0.25)" result="color1Flood" />
<feComposite operator="in" in2="noise1Clipped" in="color1Flood" result="color1" />
<feMerge result="effect2_noise_409_50">
<feMergeNode in="effect1_texture_409_50" />
<feMergeNode in="color1" />
</feMerge>
<feGaussianBlur stdDeviation="126.35" result="effect3_foregroundBlur_409_50"/>
</filter>
</defs>
</svg>
