<svg width="50vw" height="50vh" viewBox="0 0 1156 1024" fill="none" xmlns="http://www.w3.org/2000/svg">
<g id="Group_detaliu">
<circle id="Ellipse3" cx="410.97" cy="410.97" r="410.97" transform="matrix(-0.782136 0.623107 0.623107 0.782136 642.869 -90)" fill="url(#paint0_radial_272_52)"/>
<path id="DETALIU" d="M318.288 527H282.576V441.24H318.288C330.917 441.24 340.944 445.123 348.368 452.888C355.792 460.653 359.504 471.064 359.504 484.12C359.504 497.176 355.792 507.587 348.368 515.352C340.944 523.117 330.917 527 318.288 527ZM318.288 446.488H288.336V521.752H318.288C329.893 521.752 338.683 518.552 344.656 512.152C350.629 505.667 353.616 496.323 353.616 484.12C353.616 471.917 350.629 462.616 344.656 456.216C338.683 449.731 329.893 446.488 318.288 446.488ZM444.503 527H381.783V441.24H444.503V446.488H387.543V481.304H442.583V486.424H387.543V521.752H444.503V527ZM502.312 527H496.68V446.488H460.2V441.24H538.664V446.488H502.312V527ZM556.173 527H550.029L589.197 441.24H597.005L636.173 527H630.029L617.357 499.736H568.717L556.173 527ZM588.301 457.368L571.149 494.488H614.925L597.773 457.368L593.165 446.872H592.653L588.301 457.368ZM716.1 527H654.788V441.24H660.548V521.752H716.1V527ZM741.883 527H736.123V441.24H741.883V527ZM831.836 518.808C825.095 525.123 816.007 528.28 804.572 528.28C793.137 528.28 784.007 525.123 777.18 518.808C770.439 512.408 767.068 503.363 767.068 491.672V441.24H772.828V491.544C772.828 512.28 783.409 522.648 804.572 522.648C825.82 522.648 836.444 512.28 836.444 491.544V441.24H842.076V491.672C842.076 503.363 838.663 512.408 831.836 518.808Z" fill="black"/>
</g>
<defs>
<radialGradient id="paint0_radial_272_52" cx="0" cy="0" r="1" gradientUnits="userSpaceOnUse" gradientTransform="translate(223.168 612.187) rotate(2.68451) scale(486.382)">
<stop offset="0.620192" stop-color="#E8B4B4"/>
<stop offset="1" stop-color="#B28A8A"/>
</radialGradient>
</defs>
</svg>
