<svg width="50vw" height="50vh" viewBox="0 0 1156 1024" fill="none" xmlns="http://www.w3.org/2000/svg">
<g id="Group 3">
<circle id="Ellipse" cx="410.97" cy="410.97" r="410.97" transform="matrix(-0.782136 0.623107 0.623107 0.782136 642.869 -95)" fill="url(#paint0_radial_272_48)"/>
<path id="lafc" d="M300.76 523H239.448V437.24H245.208V517.752H300.76V523ZM337.679 524.28C331.535 524.28 326.586 522.872 322.831 520.056C319.076 517.24 317.199 513.4 317.199 508.536C317.199 499.491 323.94 494.2 337.423 492.664L368.527 489.08V483.448C368.527 476.536 366.863 471.587 363.535 468.6C360.292 465.528 354.959 463.992 347.535 463.992C332.09 463.992 324.367 470.008 324.367 482.04V482.68H318.735V482.04C318.735 475.555 321.295 470.093 326.415 465.656C331.62 461.133 338.746 458.872 347.791 458.872C356.495 458.872 363.023 461.133 367.375 465.656C371.727 470.093 373.903 475.811 373.903 482.808V523H368.911V505.208H368.527C366.479 511.267 362.724 515.96 357.263 519.288C351.802 522.616 345.274 524.28 337.679 524.28ZM322.831 508.152C322.831 515.747 328.079 519.544 338.575 519.544C347.108 519.544 354.234 517.411 359.951 513.144C365.668 508.792 368.527 502.563 368.527 494.456V493.304L339.471 496.632C333.583 497.229 329.316 498.381 326.671 500.088C324.111 501.709 322.831 504.397 322.831 508.152ZM439.088 523H433.328V437.24H494.896V442.488H439.088V479.864H492.976V484.984H439.088V523ZM522.923 451.448H517.163V437.24H522.923V451.448ZM522.923 523H517.163V460.152H522.923V523ZM577.676 524.28C567.777 524.28 559.884 521.251 553.996 515.192C548.108 509.048 545.164 501.155 545.164 491.512C545.164 481.955 548.108 474.147 553.996 468.088C559.884 461.944 567.777 458.872 577.676 458.872C586.636 458.872 593.932 461.432 599.564 466.552C605.281 471.672 608.14 478.755 608.14 487.8C608.14 490.104 607.927 492.024 607.5 493.56H550.668C550.924 501.667 553.271 507.981 557.708 512.504C562.145 517.027 568.759 519.288 577.548 519.288C585.484 519.288 591.457 517.837 595.468 514.936C599.564 512.035 601.612 507.896 601.612 502.52V501.752H607.244V502.52C607.244 508.92 604.428 514.168 598.796 518.264C593.164 522.275 586.124 524.28 577.676 524.28ZM577.548 463.736C568.759 463.736 562.145 465.997 557.708 470.52C553.271 475.043 550.924 481.357 550.668 489.464H602.764C602.849 488.781 602.892 487.8 602.892 486.52C602.892 479.181 600.673 473.549 596.236 469.624C591.799 465.699 585.569 463.736 577.548 463.736ZM659.386 524.28C649.743 524.28 641.893 521.208 635.834 515.064C629.861 508.92 626.874 501.069 626.874 491.512C626.874 482.04 629.861 474.232 635.834 468.088C641.893 461.944 649.743 458.872 659.386 458.872C667.834 458.872 675.002 461.219 680.89 465.912C686.863 470.605 689.85 476.579 689.85 483.832V484.6H684.218V483.96C684.218 477.731 682.042 472.867 677.69 469.368C673.338 465.784 667.237 463.992 659.386 463.992C650.255 463.992 643.471 466.424 639.034 471.288C634.682 476.067 632.506 482.808 632.506 491.512C632.506 500.216 634.682 507 639.034 511.864C643.471 516.643 650.255 519.032 659.386 519.032C667.237 519.032 673.338 517.283 677.69 513.784C682.042 510.285 684.218 505.421 684.218 499.192V498.424H689.85V499.192C689.85 506.445 686.863 512.461 680.89 517.24C675.002 521.933 667.834 524.28 659.386 524.28ZM729.189 524.28C723.045 524.28 718.096 522.872 714.341 520.056C710.586 517.24 708.709 513.4 708.709 508.536C708.709 499.491 715.45 494.2 728.933 492.664L760.037 489.08V483.448C760.037 476.536 758.373 471.587 755.045 468.6C751.802 465.528 746.469 463.992 739.045 463.992C723.6 463.992 715.877 470.008 715.877 482.04V482.68H710.245V482.04C710.245 475.555 712.805 470.093 717.925 465.656C723.13 461.133 730.256 458.872 739.301 458.872C748.005 458.872 754.533 461.133 758.885 465.656C763.237 470.093 765.413 475.811 765.413 482.808V523H760.421V505.208H760.037C757.989 511.267 754.234 515.96 748.773 519.288C743.312 522.616 736.784 524.28 729.189 524.28ZM714.341 508.152C714.341 515.747 719.589 519.544 730.085 519.544C738.618 519.544 745.744 517.411 751.461 513.144C757.178 508.792 760.037 502.563 760.037 494.456V493.304L730.981 496.632C725.093 497.229 720.826 498.381 718.181 500.088C715.621 501.709 714.341 504.397 714.341 508.152ZM796.638 523H790.878V460.152H795.87V477.304H796.382C797.406 472.013 799.838 467.619 803.678 464.12C807.518 460.621 812.595 458.872 818.91 458.872C825.822 458.872 831.07 461.091 834.654 465.528C838.323 469.88 840.158 475.171 840.158 481.4V486.136H834.526V481.912C834.526 475.768 833.161 471.245 830.43 468.344C827.699 465.357 823.347 463.864 817.374 463.864C803.55 463.864 796.638 472.44 796.638 489.592V523ZM889.516 524.28C879.617 524.28 871.724 521.251 865.836 515.192C859.948 509.048 857.004 501.155 857.004 491.512C857.004 481.955 859.948 474.147 865.836 468.088C871.724 461.944 879.617 458.872 889.516 458.872C898.476 458.872 905.772 461.432 911.404 466.552C917.121 471.672 919.98 478.755 919.98 487.8C919.98 490.104 919.767 492.024 919.34 493.56H862.508C862.764 501.667 865.111 507.981 869.548 512.504C873.985 517.027 880.599 519.288 889.388 519.288C897.324 519.288 903.297 517.837 907.308 514.936C911.404 512.035 913.452 507.896 913.452 502.52V501.752H919.084V502.52C919.084 508.92 916.268 514.168 910.636 518.264C905.004 522.275 897.964 524.28 889.516 524.28ZM889.388 463.736C880.599 463.736 873.985 465.997 869.548 470.52C865.111 475.043 862.764 481.357 862.508 489.464H914.604C914.689 488.781 914.732 487.8 914.732 486.52C914.732 479.181 912.513 473.549 908.076 469.624C903.639 465.699 897.409 463.736 889.388 463.736Z" fill="black"/>
</g>
<defs>
<radialGradient id="paint0_radial_272_48" cx="0" cy="0" r="1" gradientUnits="userSpaceOnUse" gradientTransform="translate(613.547 287.283) rotate(105.517) scale(505.167)">
<stop offset="0.620192" stop-color="#E8B4B4"/>
<stop offset="1" stop-color="#B28A8A"/>
</radialGradient>
</defs>
</svg>
