<svg width="1440" height="990" viewBox="0 0 1440 990" fill="none" xmlns="http://www.w3.org/2000/svg">
<g id="Group_micropig">
<g id="zcerc7" filter="url(#filter0_f_315_35)">
<circle cx="490.5" cy="730.5" r="40.5" fill="url(#paint0_linear_315_35)"/>
</g>
<g id="zcerc89" filter="url(#filter1_f_315_35)">
<ellipse cx="206" cy="114.5" rx="95" ry="95.5" fill="url(#paint1_linear_315_35)" fill-opacity="0.88"/>
</g>
<g id="zcerc5" filter="url(#filter2_f_315_35)">
<circle cx="618.223" cy="284.223" r="145.5" transform="rotate(30.5107 618.223 284.223)" fill="url(#paint2_linear_315_35)" fill-opacity="0.98"/>
</g>
<g id="zcerc3" filter="url(#filter3_f_315_35)">
<circle cx="1224.48" cy="843.5" r="40.5" fill="url(#paint3_linear_315_35)"/>
</g>
<g id="zcerc9" filter="url(#filter4_f_315_35)">
<circle cx="1207.27" cy="138.297" r="111" transform="rotate(-176.098 1207.27 138.297)" fill="url(#paint4_linear_315_35)"/>
</g>
<g id="merita" filter="url(#filter5_d_315_35)">
<path d="M693.991 483H689.941V438.81H693.451V452.04H693.721C694.381 447.96 696.181 444.6 699.121 441.96C702.121 439.26 706.201 437.91 711.361 437.91C716.101 437.91 719.911 439.23 722.791 441.87C725.731 444.51 727.591 448.11 728.371 452.67H728.731C729.451 448.47 731.311 444.96 734.311 442.14C737.311 439.32 741.391 437.91 746.551 437.91C752.191 437.91 756.541 439.74 759.601 443.4C762.721 447.06 764.281 451.86 764.281 457.8V483H760.321V457.53C760.321 446.85 755.431 441.51 745.651 441.51C734.611 441.51 729.091 448.29 729.091 461.85V483H725.131V457.53C725.131 446.85 720.271 441.51 710.551 441.51C704.851 441.51 700.651 443.22 697.951 446.64C695.311 450.06 693.991 455.13 693.991 461.85V483ZM796.326 483.9C789.366 483.9 783.816 481.77 779.676 477.51C775.536 473.19 773.466 467.64 773.466 460.86C773.466 454.14 775.536 448.65 779.676 444.39C783.816 440.07 789.366 437.91 796.326 437.91C802.626 437.91 807.756 439.71 811.716 443.31C815.736 446.91 817.746 451.89 817.746 458.25C817.746 459.87 817.596 461.22 817.296 462.3H777.336C777.516 468 779.166 472.44 782.286 475.62C785.406 478.8 790.056 480.39 796.236 480.39C801.816 480.39 806.016 479.37 808.836 477.33C811.716 475.29 813.156 472.38 813.156 468.6V468.06H817.116V468.6C817.116 473.1 815.136 476.79 811.176 479.67C807.216 482.49 802.266 483.9 796.326 483.9ZM796.236 441.33C790.056 441.33 785.406 442.92 782.286 446.1C779.166 449.28 777.516 453.72 777.336 459.42H813.966C814.026 458.94 814.056 458.25 814.056 457.35C814.056 452.19 812.496 448.23 809.376 445.47C806.256 442.71 801.876 441.33 796.236 441.33ZM831.188 483H827.138V438.81H830.648V450.87H831.008C831.728 447.15 833.438 444.06 836.138 441.6C838.838 439.14 842.408 437.91 846.848 437.91C851.708 437.91 855.398 439.47 857.918 442.59C860.498 445.65 861.788 449.37 861.788 453.75V457.08H857.828V454.11C857.828 449.79 856.868 446.61 854.948 444.57C853.028 442.47 849.968 441.42 845.768 441.42C836.048 441.42 831.188 447.45 831.188 459.51V483ZM873.903 432.69H869.853V422.7H873.903V432.69ZM873.903 483H869.853V438.81H873.903V483ZM911.501 483H902.411C898.031 483 894.671 481.98 892.331 479.94C889.991 477.9 888.821 474.45 888.821 469.59V442.32H880.631V438.81H888.821V427.47H892.871V438.81H911.501V442.32H892.871V470.58C892.871 473.88 893.711 476.16 895.391 477.42C897.071 478.68 899.741 479.31 903.401 479.31H911.501V483ZM946.158 430.98C944.178 432.66 941.568 433.5 938.328 433.5C935.088 433.5 932.478 432.66 930.498 430.98C928.518 429.3 927.528 426.99 927.528 424.05V421.71H930.858V424.14C930.858 428.4 933.348 430.53 938.328 430.53C940.968 430.53 942.858 430.02 943.998 429C945.198 427.92 945.798 426.3 945.798 424.14V421.71H949.128V424.05C949.128 426.99 948.138 429.3 946.158 430.98ZM931.128 483.9C926.808 483.9 923.328 482.91 920.688 480.93C918.048 478.95 916.728 476.25 916.728 472.83C916.728 466.47 921.468 462.75 930.948 461.67L952.818 459.15V455.19C952.818 450.33 951.648 446.85 949.308 444.75C947.028 442.59 943.278 441.51 938.058 441.51C927.198 441.51 921.768 445.74 921.768 454.2V454.65H917.808V454.2C917.808 449.64 919.608 445.8 923.208 442.68C926.868 439.5 931.878 437.91 938.238 437.91C944.358 437.91 948.948 439.5 952.008 442.68C955.068 445.8 956.598 449.82 956.598 454.74V483H953.088V470.49H952.818C951.378 474.75 948.738 478.05 944.898 480.39C941.058 482.73 936.468 483.9 931.128 483.9ZM920.688 472.56C920.688 477.9 924.378 480.57 931.758 480.57C937.758 480.57 942.768 479.07 946.788 476.07C950.808 473.01 952.818 468.63 952.818 462.93V462.12L932.388 464.46C928.248 464.88 925.248 465.69 923.388 466.89C921.588 468.03 920.688 469.92 920.688 472.56ZM1006.12 483.9C999.341 483.9 993.821 481.74 989.561 477.42C985.361 473.1 983.261 467.58 983.261 460.86C983.261 454.2 985.361 448.71 989.561 444.39C993.821 440.07 999.341 437.91 1006.12 437.91C1012.06 437.91 1017.1 439.56 1021.24 442.86C1025.44 446.16 1027.54 450.36 1027.54 455.46V456H1023.58V455.55C1023.58 451.17 1022.05 447.75 1018.99 445.29C1015.93 442.77 1011.64 441.51 1006.12 441.51C999.701 441.51 994.931 443.22 991.811 446.64C988.751 450 987.221 454.74 987.221 460.86C987.221 466.98 988.751 471.75 991.811 475.17C994.931 478.53 999.701 480.21 1006.12 480.21C1011.64 480.21 1015.93 478.98 1018.99 476.52C1022.05 474.06 1023.58 470.64 1023.58 466.26V465.72H1027.54V466.26C1027.54 471.36 1025.44 475.59 1021.24 478.95C1017.1 482.25 1012.06 483.9 1006.12 483.9ZM1058.17 483.9C1051.09 483.9 1045.36 481.74 1040.98 477.42C1036.66 473.1 1034.5 467.58 1034.5 460.86C1034.5 454.2 1036.66 448.71 1040.98 444.39C1045.36 440.07 1051.09 437.91 1058.17 437.91C1065.19 437.91 1070.89 440.07 1075.27 444.39C1079.65 448.71 1081.84 454.2 1081.84 460.86C1081.84 467.52 1079.65 473.04 1075.27 477.42C1070.89 481.74 1065.19 483.9 1058.17 483.9ZM1043.41 475.17C1046.77 478.59 1051.69 480.3 1058.17 480.3C1064.65 480.3 1069.54 478.59 1072.84 475.17C1076.2 471.69 1077.88 466.92 1077.88 460.86C1077.88 454.86 1076.2 450.15 1072.84 446.73C1069.54 443.25 1064.65 441.51 1058.17 441.51C1051.69 441.51 1046.77 443.25 1043.41 446.73C1040.11 450.15 1038.46 454.86 1038.46 460.86C1038.46 466.92 1040.11 471.69 1043.41 475.17ZM1095.21 483H1091.16V438.81H1094.67V452.76H1095.03C1095.93 448.68 1098.06 445.2 1101.42 442.32C1104.78 439.38 1109.01 437.91 1114.11 437.91C1120.11 437.91 1124.76 439.8 1128.06 443.58C1131.36 447.36 1133.01 452.1 1133.01 457.8V483H1128.96V457.53C1128.96 452.43 1127.67 448.5 1125.09 445.74C1122.51 442.92 1118.58 441.51 1113.3 441.51C1107.54 441.51 1103.07 443.31 1099.89 446.91C1096.77 450.51 1095.21 455.49 1095.21 461.85V483ZM1170.34 483H1161.25C1156.87 483 1153.51 481.98 1151.17 479.94C1148.83 477.9 1147.66 474.45 1147.66 469.59V442.32H1139.47V438.81H1147.66V427.47H1151.71V438.81H1170.34V442.32H1151.71V470.58C1151.71 473.88 1152.55 476.16 1154.23 477.42C1155.91 478.68 1158.58 479.31 1162.24 479.31H1170.34V483ZM1196.72 483.9C1190.72 483.9 1186.07 482.01 1182.77 478.23C1179.53 474.45 1177.91 469.71 1177.91 464.01V438.81H1181.87V464.28C1181.87 474.9 1187.12 480.21 1197.62 480.21C1203.38 480.21 1207.85 478.44 1211.03 474.9C1214.21 471.3 1215.8 466.29 1215.8 459.87V438.81H1219.76V483H1216.25V469.05H1215.98C1215.08 473.19 1212.92 476.7 1209.5 479.58C1206.14 482.46 1201.88 483.9 1196.72 483.9ZM1235.66 483H1231.61V438.81H1235.12V450.87H1235.48C1236.2 447.15 1237.91 444.06 1240.61 441.6C1243.31 439.14 1246.88 437.91 1251.32 437.91C1256.18 437.91 1259.87 439.47 1262.39 442.59C1264.97 445.65 1266.26 449.37 1266.26 453.75V457.08H1262.3V454.11C1262.3 449.79 1261.34 446.61 1259.42 444.57C1257.5 442.47 1254.44 441.42 1250.24 441.42C1240.52 441.42 1235.66 447.45 1235.66 459.51V483ZM1286.21 483.9C1281.89 483.9 1278.41 482.91 1275.77 480.93C1273.13 478.95 1271.81 476.25 1271.81 472.83C1271.81 466.47 1276.55 462.75 1286.03 461.67L1307.9 459.15V455.19C1307.9 450.33 1306.73 446.85 1304.39 444.75C1302.11 442.59 1298.36 441.51 1293.14 441.51C1282.28 441.51 1276.85 445.74 1276.85 454.2V454.65H1272.89V454.2C1272.89 449.64 1274.69 445.8 1278.29 442.68C1281.95 439.5 1286.96 437.91 1293.32 437.91C1299.44 437.91 1304.03 439.5 1307.09 442.68C1310.15 445.8 1311.68 449.82 1311.68 454.74V483H1308.17V470.49H1307.9C1306.46 474.75 1303.82 478.05 1299.98 480.39C1296.14 482.73 1291.55 483.9 1286.21 483.9ZM1275.77 472.56C1275.77 477.9 1279.46 480.57 1286.84 480.57C1292.84 480.57 1297.85 479.07 1301.87 476.07C1305.89 473.01 1307.9 468.63 1307.9 462.93V462.12L1287.47 464.46C1283.33 464.88 1280.33 465.69 1278.47 466.89C1276.67 468.03 1275.77 469.92 1275.77 472.56ZM1349.02 483H1339.93C1335.55 483 1332.19 481.98 1329.85 479.94C1327.51 477.9 1326.34 474.45 1326.34 469.59V442.32H1318.15V438.81H1326.34V427.47H1330.39V438.81H1349.02V442.32H1330.39V470.58C1330.39 473.88 1331.23 476.16 1332.91 477.42C1334.59 478.68 1337.26 479.31 1340.92 479.31H1349.02V483ZM1377.11 483.9C1370.15 483.9 1364.6 481.77 1360.46 477.51C1356.32 473.19 1354.25 467.64 1354.25 460.86C1354.25 454.14 1356.32 448.65 1360.46 444.39C1364.6 440.07 1370.15 437.91 1377.11 437.91C1383.41 437.91 1388.54 439.71 1392.5 443.31C1396.52 446.91 1398.53 451.89 1398.53 458.25C1398.53 459.87 1398.38 461.22 1398.08 462.3H1358.12C1358.3 468 1359.95 472.44 1363.07 475.62C1366.19 478.8 1370.84 480.39 1377.02 480.39C1382.6 480.39 1386.8 479.37 1389.62 477.33C1392.5 475.29 1393.94 472.38 1393.94 468.6V468.06H1397.9V468.6C1397.9 473.1 1395.92 476.79 1391.96 479.67C1388 482.49 1383.05 483.9 1377.11 483.9ZM1377.02 441.33C1370.84 441.33 1366.19 442.92 1363.07 446.1C1359.95 449.28 1358.3 453.72 1358.12 459.42H1394.75C1394.81 458.94 1394.84 458.25 1394.84 457.35C1394.84 452.19 1393.28 448.23 1390.16 445.47C1387.04 442.71 1382.66 441.33 1377.02 441.33ZM1409.72 463.2H1406.39C1406.39 459.3 1406.27 453.12 1406.03 444.66C1405.79 436.2 1405.67 430.98 1405.67 429V422.7H1410.44V429C1410.44 430.98 1410.32 436.2 1410.08 444.66C1409.84 453.12 1409.72 459.3 1409.72 463.2ZM1410.35 483H1405.85V471.75H1410.35V483Z" fill="white"/>
</g>
<g id="Buzele" filter="url(#filter6_d_315_35)">
<path d="M91.91 487H61.13V426.7H91.28C96.5 426.7 100.73 428.05 103.97 430.75C107.21 433.39 108.83 437.05 108.83 441.73C108.83 445.21 107.84 448.15 105.86 450.55C103.88 452.89 101.03 454.42 97.31 455.14V455.5C101.57 456.4 104.84 458.17 107.12 460.81C109.4 463.39 110.54 466.6 110.54 470.44C110.54 475.6 108.8 479.65 105.32 482.59C101.9 485.53 97.43 487 91.91 487ZM65.09 430.39V453.79H90.29C100.01 453.79 104.87 449.89 104.87 442.09C104.87 434.29 100.28 430.39 91.1 430.39H65.09ZM65.09 457.39V483.31H91.73C101.57 483.31 106.49 478.93 106.49 470.17C106.49 461.65 101.57 457.39 91.73 457.39H65.09ZM137.611 487.9C131.611 487.9 126.961 486.01 123.661 482.23C120.421 478.45 118.801 473.71 118.801 468.01V442.81H122.761V468.28C122.761 478.9 128.011 484.21 138.511 484.21C144.271 484.21 148.741 482.44 151.921 478.9C155.101 475.3 156.691 470.29 156.691 463.87V442.81H160.651V487H157.141V473.05H156.871C155.971 477.19 153.811 480.7 150.391 483.58C147.031 486.46 142.771 487.9 137.611 487.9ZM213.186 487H169.176V483.4L196.986 455.68L206.346 446.68V446.32L196.986 446.41H170.526V442.81H211.836V446.41L182.226 475.66L174.396 483.13V483.49L182.226 483.4H213.186V487ZM242.065 487.9C235.105 487.9 229.555 485.77 225.415 481.51C221.275 477.19 219.205 471.64 219.205 464.86C219.205 458.14 221.275 452.65 225.415 448.39C229.555 444.07 235.105 441.91 242.065 441.91C248.365 441.91 253.495 443.71 257.455 447.31C261.475 450.91 263.485 455.89 263.485 462.25C263.485 463.87 263.335 465.22 263.035 466.3H223.075C223.255 472 224.905 476.44 228.025 479.62C231.145 482.8 235.795 484.39 241.975 484.39C247.555 484.39 251.755 483.37 254.575 481.33C257.455 479.29 258.895 476.38 258.895 472.6V472.06H262.855V472.6C262.855 477.1 260.875 480.79 256.915 483.67C252.955 486.49 248.005 487.9 242.065 487.9ZM241.975 445.33C235.795 445.33 231.145 446.92 228.025 450.1C224.905 453.28 223.255 457.72 223.075 463.42H259.705C259.765 462.94 259.795 462.25 259.795 461.35C259.795 456.19 258.235 452.23 255.115 449.47C251.995 446.71 247.615 445.33 241.975 445.33ZM276.928 487H272.877V426.7H276.928V487ZM309.126 487.9C302.166 487.9 296.616 485.77 292.476 481.51C288.336 477.19 286.266 471.64 286.266 464.86C286.266 458.14 288.336 452.65 292.476 448.39C296.616 444.07 302.166 441.91 309.126 441.91C315.426 441.91 320.556 443.71 324.516 447.31C328.536 450.91 330.546 455.89 330.546 462.25C330.546 463.87 330.396 465.22 330.096 466.3H290.136C290.316 472 291.966 476.44 295.086 479.62C298.206 482.8 302.856 484.39 309.036 484.39C314.616 484.39 318.816 483.37 321.636 481.33C324.516 479.29 325.956 476.38 325.956 472.6V472.06H329.916V472.6C329.916 477.1 327.936 480.79 323.976 483.67C320.016 486.49 315.066 487.9 309.126 487.9ZM309.036 445.33C302.856 445.33 298.206 446.92 295.086 450.1C291.966 453.28 290.316 457.72 290.136 463.42H326.766C326.826 462.94 326.856 462.25 326.856 461.35C326.856 456.19 325.296 452.23 322.176 449.47C319.056 446.71 314.676 445.33 309.036 445.33Z" fill="white"/>
</g>
<g id="tale+linie">
<g id="tale" filter="url(#filter7_d_315_35)">
<path d="M452.681 483H443.591C439.211 483 435.851 481.98 433.511 479.94C431.171 477.9 430.001 474.45 430.001 469.59V442.32H421.811V438.81H430.001V427.47H434.051V438.81H452.681V442.32H434.051V470.58C434.051 473.88 434.891 476.16 436.571 477.42C438.251 478.68 440.921 479.31 444.581 479.31H452.681V483ZM480.407 483.9C476.087 483.9 472.607 482.91 469.967 480.93C467.327 478.95 466.007 476.25 466.007 472.83C466.007 466.47 470.747 462.75 480.227 461.67L502.097 459.15V455.19C502.097 450.33 500.927 446.85 498.587 444.75C496.307 442.59 492.557 441.51 487.337 441.51C476.477 441.51 471.047 445.74 471.047 454.2V454.65H467.087V454.2C467.087 449.64 468.887 445.8 472.487 442.68C476.147 439.5 481.157 437.91 487.517 437.91C493.637 437.91 498.227 439.5 501.287 442.68C504.347 445.8 505.877 449.82 505.877 454.74V483H502.367V470.49H502.097C500.657 474.75 498.017 478.05 494.177 480.39C490.337 482.73 485.747 483.9 480.407 483.9ZM469.967 472.56C469.967 477.9 473.657 480.57 481.037 480.57C487.037 480.57 492.047 479.07 496.067 476.07C500.087 473.01 502.097 468.63 502.097 462.93V462.12L481.667 464.46C477.527 464.88 474.527 465.69 472.667 466.89C470.867 468.03 469.967 469.92 469.967 472.56ZM529.632 483H525.582V422.7H529.632V483ZM569.931 483.9C562.971 483.9 557.421 481.77 553.281 477.51C549.141 473.19 547.071 467.64 547.071 460.86C547.071 454.14 549.141 448.65 553.281 444.39C557.421 440.07 562.971 437.91 569.931 437.91C576.231 437.91 581.361 439.71 585.321 443.31C589.341 446.91 591.351 451.89 591.351 458.25C591.351 459.87 591.201 461.22 590.901 462.3H550.941C551.121 468 552.771 472.44 555.891 475.62C559.011 478.8 563.661 480.39 569.841 480.39C575.421 480.39 579.621 479.37 582.441 477.33C585.321 475.29 586.761 472.38 586.761 468.6V468.06H590.721V468.6C590.721 473.1 588.741 476.79 584.781 479.67C580.821 482.49 575.871 483.9 569.931 483.9ZM569.841 441.33C563.661 441.33 559.011 442.92 555.891 446.1C552.771 449.28 551.121 453.72 550.941 459.42H587.571C587.631 458.94 587.661 458.25 587.661 457.35C587.661 452.19 586.101 448.23 582.981 445.47C579.861 442.71 575.481 441.33 569.841 441.33Z" fill="white"/>
</g>
<line id="linie" x1="420.995" y1="495" x2="599.995" y2="494" stroke="white" stroke-width="2"/>
</g>
<g id="zcerc1" filter="url(#filter8_f_315_35)">
<circle cx="164.355" cy="771.355" r="116.065" transform="rotate(21.35 164.355 771.355)" fill="url(#paint5_radial_315_35)"/>
</g>
<g id="zcerc4" filter="url(#filter9_f_315_35)">
<circle cx="925.281" cy="771.281" r="168.5" transform="rotate(21.35 925.281 771.281)" fill="url(#paint6_radial_315_35)"/>
</g>
<g id="zcerc8" filter="url(#filter10_f_315_35)">
<ellipse cx="1318.98" cy="594.5" rx="95" ry="95.5" fill="url(#paint7_linear_315_35)" fill-opacity="0.88"/>
</g>
<g id="zcerc7_2" filter="url(#filter11_f_315_35)">
<circle cx="950.5" cy="341.5" r="40.5" fill="url(#paint8_linear_315_35)"/>
</g>
<g id="Sprancenele" filter="url(#filter12_d_315_35)">
<path d="M36.464 483.72C29.744 483.72 24.704 482.256 21.344 479.328C17.984 476.4 16.304 472.632 16.304 468.024V467.592H19.544V468.456C19.544 476.568 25.184 480.624 36.464 480.624C46.592 480.624 51.656 477.48 51.656 471.192C51.656 468.264 50.768 466.08 48.992 464.64C47.216 463.2 44.264 462.024 40.136 461.112L30.992 459.24C26.576 458.328 23.096 456.936 20.552 455.064C18.056 453.144 16.808 450.336 16.808 446.64C16.808 443.136 18.368 440.16 21.488 437.712C24.608 435.264 29.216 434.04 35.312 434.04C41.552 434.04 46.256 435.528 49.424 438.504C52.64 441.48 54.248 445.224 54.248 449.736V450.168H51.008V449.304C51.008 441.24 45.752 437.208 35.24 437.208C25.112 437.208 20.048 440.232 20.048 446.28C20.048 449.304 20.936 451.512 22.712 452.904C24.488 454.248 27.536 455.4 31.856 456.36L40.928 458.232C45.344 459.144 48.776 460.584 51.224 462.552C53.672 464.472 54.896 467.232 54.896 470.832C54.896 474.432 53.312 477.48 50.144 479.976C47.024 482.472 42.464 483.72 36.464 483.72ZM65.4451 495.24H62.2051V447.648H65.0131V457.656H65.5891C66.4531 454.44 68.2531 451.848 70.9891 449.88C73.7251 447.912 77.1331 446.928 81.2131 446.928C86.6371 446.928 90.9091 448.656 94.0291 452.112C97.1491 455.52 98.7091 459.912 98.7091 465.288C98.7091 470.76 97.1251 475.2 93.9571 478.608C90.8371 482.016 86.4931 483.72 80.9251 483.72C77.0851 483.72 73.7491 482.712 70.9171 480.696C68.1331 478.68 66.3091 475.992 65.4451 472.632V495.24ZM65.4451 466.008C65.4451 470.52 66.8131 474.12 69.5491 476.808C72.3331 479.448 75.9571 480.768 80.4211 480.768C90.4531 480.768 95.4691 475.608 95.4691 465.288C95.4691 455.016 90.5251 449.88 80.6371 449.88C75.9331 449.88 72.2131 451.248 69.4771 453.984C66.7891 456.72 65.4451 460.488 65.4451 465.288V466.008ZM108.758 483H105.518V447.648H108.326V457.296H108.614C109.19 454.32 110.558 451.848 112.718 449.88C114.878 447.912 117.734 446.928 121.286 446.928C125.174 446.928 128.126 448.176 130.142 450.672C132.206 453.12 133.238 456.096 133.238 459.6V462.264H130.07V459.888C130.07 456.432 129.302 453.888 127.766 452.256C126.23 450.576 123.782 449.736 120.422 449.736C112.646 449.736 108.758 454.56 108.758 464.208V483ZM149.194 483.72C145.738 483.72 142.954 482.928 140.842 481.344C138.73 479.76 137.674 477.6 137.674 474.864C137.674 469.776 141.466 466.8 149.05 465.936L166.546 463.92V460.752C166.546 456.864 165.61 454.08 163.738 452.4C161.914 450.672 158.914 449.808 154.738 449.808C146.05 449.808 141.706 453.192 141.706 459.96V460.32H138.538V459.96C138.538 456.312 139.978 453.24 142.858 450.744C145.786 448.2 149.794 446.928 154.882 446.928C159.778 446.928 163.45 448.2 165.898 450.744C168.346 453.24 169.57 456.456 169.57 460.392V483H166.762V472.992H166.546C165.394 476.4 163.282 479.04 160.21 480.912C157.138 482.784 153.466 483.72 149.194 483.72ZM140.842 474.648C140.842 478.92 143.794 481.056 149.698 481.056C154.498 481.056 158.506 479.856 161.722 477.456C164.938 475.008 166.546 471.504 166.546 466.944V466.296L150.202 468.168C146.89 468.504 144.49 469.152 143.002 470.112C141.562 471.024 140.842 472.536 140.842 474.648ZM182.094 483H178.854V447.648H181.662V458.808H181.95C182.67 455.544 184.374 452.76 187.062 450.456C189.75 448.104 193.134 446.928 197.214 446.928C202.014 446.928 205.734 448.44 208.374 451.464C211.014 454.488 212.334 458.28 212.334 462.84V483H209.094V462.624C209.094 458.544 208.062 455.4 205.998 453.192C203.934 450.936 200.79 449.808 196.566 449.808C191.958 449.808 188.382 451.248 185.838 454.128C183.342 457.008 182.094 460.992 182.094 466.08V483ZM237.876 483.72C232.452 483.72 228.036 481.992 224.628 478.536C221.268 475.08 219.588 470.664 219.588 465.288C219.588 459.96 221.268 455.568 224.628 452.112C228.036 448.656 232.452 446.928 237.876 446.928C242.628 446.928 246.66 448.248 249.972 450.888C253.332 453.528 255.012 456.888 255.012 460.968V461.4H251.844V461.04C251.844 457.536 250.62 454.8 248.172 452.832C245.724 450.816 242.292 449.808 237.876 449.808C232.74 449.808 228.924 451.176 226.428 453.912C223.98 456.6 222.756 460.392 222.756 465.288C222.756 470.184 223.98 474 226.428 476.736C228.924 479.424 232.74 480.768 237.876 480.768C242.292 480.768 245.724 479.784 248.172 477.816C250.62 475.848 251.844 473.112 251.844 469.608V469.176H255.012V469.608C255.012 473.688 253.332 477.072 249.972 479.76C246.66 482.4 242.628 483.72 237.876 483.72ZM278.868 483.72C273.3 483.72 268.86 482.016 265.548 478.608C262.236 475.152 260.58 470.712 260.58 465.288C260.58 459.912 262.236 455.52 265.548 452.112C268.86 448.656 273.3 446.928 278.868 446.928C283.908 446.928 288.012 448.368 291.18 451.248C294.396 454.128 296.004 458.112 296.004 463.2C296.004 464.496 295.884 465.576 295.644 466.44H263.676C263.82 471 265.14 474.552 267.636 477.096C270.132 479.64 273.852 480.912 278.796 480.912C283.26 480.912 286.62 480.096 288.876 478.464C291.18 476.832 292.332 474.504 292.332 471.48V471.048H295.5V471.48C295.5 475.08 293.916 478.032 290.748 480.336C287.58 482.592 283.62 483.72 278.868 483.72ZM278.796 449.664C273.852 449.664 270.132 450.936 267.636 453.48C265.14 456.024 263.82 459.576 263.676 464.136H292.98C293.028 463.752 293.052 463.2 293.052 462.48C293.052 458.352 291.804 455.184 289.308 452.976C286.812 450.768 283.308 449.664 278.796 449.664ZM306.758 483H303.518V447.648H306.326V458.808H306.614C307.334 455.544 309.038 452.76 311.726 450.456C314.414 448.104 317.798 446.928 321.878 446.928C326.678 446.928 330.398 448.44 333.038 451.464C335.678 454.488 336.998 458.28 336.998 462.84V483H333.758V462.624C333.758 458.544 332.726 455.4 330.662 453.192C328.598 450.936 325.454 449.808 321.23 449.808C316.622 449.808 313.046 451.248 310.502 454.128C308.006 457.008 306.758 460.992 306.758 466.08V483ZM362.54 483.72C356.972 483.72 352.532 482.016 349.22 478.608C345.908 475.152 344.252 470.712 344.252 465.288C344.252 459.912 345.908 455.52 349.22 452.112C352.532 448.656 356.972 446.928 362.54 446.928C367.58 446.928 371.684 448.368 374.852 451.248C378.068 454.128 379.676 458.112 379.676 463.2C379.676 464.496 379.556 465.576 379.316 466.44H347.348C347.492 471 348.812 474.552 351.308 477.096C353.804 479.64 357.524 480.912 362.468 480.912C366.932 480.912 370.292 480.096 372.548 478.464C374.852 476.832 376.004 474.504 376.004 471.48V471.048H379.172V471.48C379.172 475.08 377.588 478.032 374.42 480.336C371.252 482.592 367.292 483.72 362.54 483.72ZM362.468 449.664C357.524 449.664 353.804 450.936 351.308 453.48C348.812 456.024 347.492 459.576 347.348 464.136H376.652C376.7 463.752 376.724 463.2 376.724 462.48C376.724 458.352 375.476 455.184 372.98 452.976C370.484 450.768 366.98 449.664 362.468 449.664ZM390.43 483H387.189V434.76H390.43V483ZM416.188 483.72C410.62 483.72 406.18 482.016 402.868 478.608C399.556 475.152 397.9 470.712 397.9 465.288C397.9 459.912 399.556 455.52 402.868 452.112C406.18 448.656 410.62 446.928 416.188 446.928C421.228 446.928 425.332 448.368 428.5 451.248C431.716 454.128 433.324 458.112 433.324 463.2C433.324 464.496 433.204 465.576 432.964 466.44H400.996C401.14 471 402.46 474.552 404.956 477.096C407.452 479.64 411.172 480.912 416.116 480.912C420.58 480.912 423.94 480.096 426.196 478.464C428.5 476.832 429.652 474.504 429.652 471.48V471.048H432.82V471.48C432.82 475.08 431.236 478.032 428.068 480.336C424.9 482.592 420.94 483.72 416.188 483.72ZM416.116 449.664C411.172 449.664 407.452 450.936 404.956 453.48C402.46 456.024 401.14 459.576 400.996 464.136H430.3C430.348 463.752 430.372 463.2 430.372 462.48C430.372 458.352 429.124 455.184 426.628 452.976C424.132 450.768 420.628 449.664 416.116 449.664Z" fill="white"/>
</g>
</g>
<defs>
<filter id="filter0_f_315_35" x="427" y="667" width="127" height="127" filterUnits="userSpaceOnUse" color-interpolation-filters="sRGB">
<feFlood flood-opacity="0" result="BackgroundImageFix"/>
<feBlend mode="normal" in="SourceGraphic" in2="BackgroundImageFix" result="shape"/>
<feGaussianBlur stdDeviation="11.5" result="effect1_foregroundBlur_315_35"/>
</filter>
<filter id="filter1_f_315_35" x="92" y="0" width="228" height="229" filterUnits="userSpaceOnUse" color-interpolation-filters="sRGB">
<feFlood flood-opacity="0" result="BackgroundImageFix"/>
<feBlend mode="normal" in="SourceGraphic" in2="BackgroundImageFix" result="shape"/>
<feGaussianBlur stdDeviation="9.5" result="effect1_foregroundBlur_315_35"/>
</filter>
<filter id="filter2_f_315_35" x="441" y="107" width="354.446" height="354.446" filterUnits="userSpaceOnUse" color-interpolation-filters="sRGB">
<feFlood flood-opacity="0" result="BackgroundImageFix"/>
<feBlend mode="normal" in="SourceGraphic" in2="BackgroundImageFix" result="shape"/>
<feGaussianBlur stdDeviation="15.85" result="effect1_foregroundBlur_315_35"/>
</filter>
<filter id="filter3_f_315_35" x="1160.98" y="780" width="127" height="127" filterUnits="userSpaceOnUse" color-interpolation-filters="sRGB">
<feFlood flood-opacity="0" result="BackgroundImageFix"/>
<feBlend mode="normal" in="SourceGraphic" in2="BackgroundImageFix" result="shape"/>
<feGaussianBlur stdDeviation="11.5" result="effect1_foregroundBlur_315_35"/>
</filter>
<filter id="filter4_f_315_35" x="1077.27" y="8.29224" width="260.009" height="260.009" filterUnits="userSpaceOnUse" color-interpolation-filters="sRGB">
<feFlood flood-opacity="0" result="BackgroundImageFix"/>
<feBlend mode="normal" in="SourceGraphic" in2="BackgroundImageFix" result="shape"/>
<feGaussianBlur stdDeviation="9.5" result="effect1_foregroundBlur_315_35"/>
</filter>
<filter id="filter5_d_315_35" x="671.941" y="412.71" width="752.498" height="94.19" filterUnits="userSpaceOnUse" color-interpolation-filters="sRGB">
<feFlood flood-opacity="0" result="BackgroundImageFix"/>
<feColorMatrix in="SourceAlpha" type="matrix" values="0 0 0 0 0 0 0 0 0 0 0 0 0 0 0 0 0 0 127 0" result="hardAlpha"/>
<feOffset dx="-2" dy="7"/>
<feGaussianBlur stdDeviation="8"/>
<feComposite in2="hardAlpha" operator="out"/>
<feColorMatrix type="matrix" values="0 0 0 0 0 0 0 0 0 0 0 0 0 0 0 0 0 0 0.65 0"/>
<feBlend mode="normal" in2="BackgroundImageFix" result="effect1_dropShadow_315_35"/>
<feBlend mode="normal" in="SourceGraphic" in2="effect1_dropShadow_315_35" result="shape"/>
</filter>
<filter id="filter6_d_315_35" x="43.1299" y="417.7" width="301.416" height="93.2" filterUnits="userSpaceOnUse" color-interpolation-filters="sRGB">
<feFlood flood-opacity="0" result="BackgroundImageFix"/>
<feColorMatrix in="SourceAlpha" type="matrix" values="0 0 0 0 0 0 0 0 0 0 0 0 0 0 0 0 0 0 127 0" result="hardAlpha"/>
<feOffset dx="-2" dy="7"/>
<feGaussianBlur stdDeviation="8"/>
<feComposite in2="hardAlpha" operator="out"/>
<feColorMatrix type="matrix" values="0 0 0 0 0 0 0 0 0 0 0 0 0 0 0 0 0 0 0.65 0"/>
<feBlend mode="normal" in2="BackgroundImageFix" result="effect1_dropShadow_315_35"/>
<feBlend mode="normal" in="SourceGraphic" in2="effect1_dropShadow_315_35" result="shape"/>
</filter>
<filter id="filter7_d_315_35" x="403.811" y="413.7" width="201.54" height="93.2" filterUnits="userSpaceOnUse" color-interpolation-filters="sRGB">
<feFlood flood-opacity="0" result="BackgroundImageFix"/>
<feColorMatrix in="SourceAlpha" type="matrix" values="0 0 0 0 0 0 0 0 0 0 0 0 0 0 0 0 0 0 127 0" result="hardAlpha"/>
<feOffset dx="-2" dy="7"/>
<feGaussianBlur stdDeviation="8"/>
<feComposite in2="hardAlpha" operator="out"/>
<feColorMatrix type="matrix" values="0 0 0 0 0 0 0 0 0 0 0 0 0 0 0 0 0 0 0.65 0"/>
<feBlend mode="normal" in2="BackgroundImageFix" result="effect1_dropShadow_315_35"/>
<feBlend mode="normal" in="SourceGraphic" in2="effect1_dropShadow_315_35" result="shape"/>
</filter>
<filter id="filter8_f_315_35" x="34.3598" y="641.359" width="259.991" height="259.992" filterUnits="userSpaceOnUse" color-interpolation-filters="sRGB">
<feFlood flood-opacity="0" result="BackgroundImageFix"/>
<feBlend mode="normal" in="SourceGraphic" in2="BackgroundImageFix" result="shape"/>
<feGaussianBlur stdDeviation="6.95" result="effect1_foregroundBlur_315_35"/>
</filter>
<filter id="filter9_f_315_35" x="748.735" y="594.736" width="353.091" height="353.09" filterUnits="userSpaceOnUse" color-interpolation-filters="sRGB">
<feFlood flood-opacity="0" result="BackgroundImageFix"/>
<feBlend mode="normal" in="SourceGraphic" in2="BackgroundImageFix" result="shape"/>
<feGaussianBlur stdDeviation="4" result="effect1_foregroundBlur_315_35"/>
</filter>
<filter id="filter10_f_315_35" x="1204.98" y="480" width="228" height="229" filterUnits="userSpaceOnUse" color-interpolation-filters="sRGB">
<feFlood flood-opacity="0" result="BackgroundImageFix"/>
<feBlend mode="normal" in="SourceGraphic" in2="BackgroundImageFix" result="shape"/>
<feGaussianBlur stdDeviation="9.5" result="effect1_foregroundBlur_315_35"/>
</filter>
<filter id="filter11_f_315_35" x="887" y="278" width="127" height="127" filterUnits="userSpaceOnUse" color-interpolation-filters="sRGB">
<feFlood flood-opacity="0" result="BackgroundImageFix"/>
<feBlend mode="normal" in="SourceGraphic" in2="BackgroundImageFix" result="shape"/>
<feGaussianBlur stdDeviation="11.5" result="effect1_foregroundBlur_315_35"/>
</filter>
<filter id="filter12_d_315_35" x="-1.69629" y="425.04" width="449.021" height="93.2" filterUnits="userSpaceOnUse" color-interpolation-filters="sRGB">
<feFlood flood-opacity="0" result="BackgroundImageFix"/>
<feColorMatrix in="SourceAlpha" type="matrix" values="0 0 0 0 0 0 0 0 0 0 0 0 0 0 0 0 0 0 127 0" result="hardAlpha"/>
<feOffset dx="-2" dy="7"/>
<feGaussianBlur stdDeviation="8"/>
<feComposite in2="hardAlpha" operator="out"/>
<feColorMatrix type="matrix" values="0 0 0 0 0 0 0 0 0 0 0 0 0 0 0 0 0 0 0.65 0"/>
<feBlend mode="normal" in2="BackgroundImageFix" result="effect1_dropShadow_315_35"/>
<feBlend mode="normal" in="SourceGraphic" in2="effect1_dropShadow_315_35" result="shape"/>
</filter>
<linearGradient id="paint0_linear_315_35" x1="463.135" y1="744.912" x2="519.872" y2="752.574" gradientUnits="userSpaceOnUse">
<stop offset="0.615385" stop-color="#D2AC47"/>
<stop offset="1" stop-color="#AE8625"/>
</linearGradient>
<linearGradient id="paint1_linear_315_35" x1="141.811" y1="148.484" x2="274.921" y2="166.366" gradientUnits="userSpaceOnUse">
<stop stop-color="#EEDE79"/>
<stop offset="1" stop-color="#CAAA5C"/>
</linearGradient>
<linearGradient id="paint2_linear_315_35" x1="618.223" y1="195.744" x2="602.494" y2="394.332" gradientUnits="userSpaceOnUse">
<stop offset="0.192308" stop-color="#CAAA5C"/>
<stop offset="0.581731" stop-color="#EEDE79"/>
</linearGradient>
<linearGradient id="paint3_linear_315_35" x1="1197.11" y1="857.912" x2="1253.85" y2="865.574" gradientUnits="userSpaceOnUse">
<stop offset="0.615385" stop-color="#EEDE79"/>
<stop offset="1" stop-color="#E5CE69"/>
</linearGradient>
<linearGradient id="paint4_linear_315_35" x1="1132.27" y1="177.797" x2="1287.77" y2="198.797" gradientUnits="userSpaceOnUse">
<stop stop-color="#EEDE79"/>
<stop offset="1" stop-color="#AE8625"/>
</linearGradient>
<radialGradient id="paint5_radial_315_35" cx="0" cy="0" r="1" gradientUnits="userSpaceOnUse" gradientTransform="translate(111.317 828.182) rotate(2.68451) scale(137.363)">
<stop offset="0.620192" stop-color="#E5CE69"/>
<stop offset="1" stop-color="#CAAA5C"/>
</radialGradient>
<radialGradient id="paint6_radial_315_35" cx="0" cy="0" r="1" gradientUnits="userSpaceOnUse" gradientTransform="translate(848.281 853.781) rotate(2.68451) scale(199.419)">
<stop offset="0.620192" stop-color="#EDC967"/>
<stop offset="1" stop-color="#AC8B3B"/>
</radialGradient>
<linearGradient id="paint7_linear_315_35" x1="1254.79" y1="628.484" x2="1387.9" y2="646.366" gradientUnits="userSpaceOnUse">
<stop stop-color="#EEDE79"/>
<stop offset="1" stop-color="#CAAA5C"/>
</linearGradient>
<linearGradient id="paint8_linear_315_35" x1="923.135" y1="355.912" x2="979.872" y2="363.574" gradientUnits="userSpaceOnUse">
<stop offset="0.615385" stop-color="#D2AC47"/>
<stop offset="1" stop-color="#AE8625"/>
</linearGradient>
</defs>
</svg>
