<svg width="100vw" height="874" viewBox="0 0 402 874" fill="none" xmlns="http://www.w3.org/2000/svg">
<g id="gruptelefonpartea4">
<g id="cerc7" filter="url(#filter0_f_392_27)">
<circle cx="285.5" cy="526.5" r="40.5" fill="url(#paint0_linear_392_27)"/>
</g>
<g id="cerc3" filter="url(#filter1_f_392_27)">
<circle cx="131.501" cy="330.5" r="40.5" fill="url(#paint1_linear_392_27)"/>
</g>
<g id="cerc9" filter="url(#filter2_f_392_27)">
<circle cx="333.097" cy="120.097" r="47.007" transform="rotate(-176.098 333.097 120.097)" fill="url(#paint2_linear_392_27)"/>
</g>
<g id="Genele" filter="url(#filter3_d_392_27)">
<path d="M84.49 291.9C76.03 291.9 69.07 289.05 63.61 283.35C58.15 277.65 55.42 270.15 55.42 260.85C55.42 251.55 58.18 244.05 63.7 238.35C69.28 232.65 76.36 229.8 84.94 229.8C92.38 229.8 98.59 231.78 103.57 235.74C108.61 239.7 111.13 244.89 111.13 251.31V252.12H106.9V251.31C106.9 245.79 104.98 241.47 101.14 238.35C97.3 235.23 91.9 233.67 84.94 233.67C77.02 233.67 70.81 236.04 66.31 240.78C61.81 245.52 59.56 252.21 59.56 260.85C59.56 269.49 61.78 276.18 66.22 280.92C70.72 285.6 76.93 287.94 84.85 287.94C92.05 287.94 97.57 286.32 101.41 283.08C105.25 279.84 107.17 275.07 107.17 268.77V265.44H81.97V262.02H111.13V291H107.71V277.77H107.35C105.79 282.63 102.94 286.2 98.8 288.48C94.72 290.76 89.95 291.9 84.49 291.9ZM142.176 291.9C135.216 291.9 129.666 289.77 125.526 285.51C121.386 281.19 119.316 275.64 119.316 268.86C119.316 262.14 121.386 256.65 125.526 252.39C129.666 248.07 135.216 245.91 142.176 245.91C148.476 245.91 153.606 247.71 157.566 251.31C161.586 254.91 163.596 259.89 163.596 266.25C163.596 267.87 163.446 269.22 163.146 270.3H123.186C123.366 276 125.016 280.44 128.136 283.62C131.256 286.8 135.906 288.39 142.086 288.39C147.666 288.39 151.866 287.37 154.686 285.33C157.566 283.29 159.006 280.38 159.006 276.6V276.06H162.966V276.6C162.966 281.1 160.986 284.79 157.026 287.67C153.066 290.49 148.116 291.9 142.176 291.9ZM142.086 249.33C135.906 249.33 131.256 250.92 128.136 254.1C125.016 257.28 123.366 261.72 123.186 267.42H159.816C159.876 266.94 159.906 266.25 159.906 265.35C159.906 260.19 158.346 256.23 155.226 253.47C152.106 250.71 147.726 249.33 142.086 249.33ZM177.039 291H172.989V246.81H176.499V260.76H176.859C177.759 256.68 179.889 253.2 183.249 250.32C186.609 247.38 190.839 245.91 195.939 245.91C201.939 245.91 206.589 247.8 209.889 251.58C213.189 255.36 214.839 260.1 214.839 265.8V291H210.789V265.53C210.789 260.43 209.499 256.5 206.919 253.74C204.339 250.92 200.409 249.51 195.129 249.51C189.369 249.51 184.899 251.31 181.719 254.91C178.599 258.51 177.039 263.49 177.039 269.85V291ZM246.766 291.9C239.806 291.9 234.256 289.77 230.116 285.51C225.976 281.19 223.906 275.64 223.906 268.86C223.906 262.14 225.976 256.65 230.116 252.39C234.256 248.07 239.806 245.91 246.766 245.91C253.066 245.91 258.196 247.71 262.156 251.31C266.176 254.91 268.186 259.89 268.186 266.25C268.186 267.87 268.036 269.22 267.736 270.3H227.776C227.956 276 229.606 280.44 232.726 283.62C235.846 286.8 240.496 288.39 246.676 288.39C252.256 288.39 256.456 287.37 259.276 285.33C262.156 283.29 263.596 280.38 263.596 276.6V276.06H267.556V276.6C267.556 281.1 265.576 284.79 261.616 287.67C257.656 290.49 252.706 291.9 246.766 291.9ZM246.676 249.33C240.496 249.33 235.846 250.92 232.726 254.1C229.606 257.28 227.956 261.72 227.776 267.42H264.406C264.466 266.94 264.496 266.25 264.496 265.35C264.496 260.19 262.936 256.23 259.816 253.47C256.696 250.71 252.316 249.33 246.676 249.33ZM281.629 291H277.579V230.7H281.629V291ZM313.827 291.9C306.867 291.9 301.317 289.77 297.177 285.51C293.037 281.19 290.967 275.64 290.967 268.86C290.967 262.14 293.037 256.65 297.177 252.39C301.317 248.07 306.867 245.91 313.827 245.91C320.127 245.91 325.257 247.71 329.217 251.31C333.237 254.91 335.247 259.89 335.247 266.25C335.247 267.87 335.097 269.22 334.797 270.3H294.837C295.017 276 296.667 280.44 299.787 283.62C302.907 286.8 307.557 288.39 313.737 288.39C319.317 288.39 323.517 287.37 326.337 285.33C329.217 283.29 330.657 280.38 330.657 276.6V276.06H334.617V276.6C334.617 281.1 332.637 284.79 328.677 287.67C324.717 290.49 319.767 291.9 313.827 291.9ZM313.737 249.33C307.557 249.33 302.907 250.92 299.787 254.1C296.667 257.28 295.017 261.72 294.837 267.42H331.467C331.527 266.94 331.557 266.25 331.557 265.35C331.557 260.19 329.997 256.23 326.877 253.47C323.757 250.71 319.377 249.33 313.737 249.33Z" fill="black"/>
</g>
<g id="tale" filter="url(#filter4_d_392_27)">
<path d="M142.68 424H133.59C129.21 424 125.85 422.98 123.51 420.94C121.17 418.9 120 415.45 120 410.59V383.32H111.81V379.81H120V368.47H124.05V379.81H142.68V383.32H124.05V411.58C124.05 414.88 124.89 417.16 126.57 418.42C128.25 419.68 130.92 420.31 134.58 420.31H142.68V424ZM170.406 424.9C166.086 424.9 162.606 423.91 159.966 421.93C157.326 419.95 156.006 417.25 156.006 413.83C156.006 407.47 160.746 403.75 170.226 402.67L192.096 400.15V396.19C192.096 391.33 190.926 387.85 188.586 385.75C186.306 383.59 182.556 382.51 177.336 382.51C166.476 382.51 161.046 386.74 161.046 395.2V395.65H157.086V395.2C157.086 390.64 158.886 386.8 162.486 383.68C166.146 380.5 171.156 378.91 177.516 378.91C183.636 378.91 188.226 380.5 191.286 383.68C194.346 386.8 195.876 390.82 195.876 395.74V424H192.366V411.49H192.096C190.656 415.75 188.016 419.05 184.176 421.39C180.336 423.73 175.746 424.9 170.406 424.9ZM159.966 413.56C159.966 418.9 163.656 421.57 171.036 421.57C177.036 421.57 182.046 420.07 186.066 417.07C190.086 414.01 192.096 409.63 192.096 403.93V403.12L171.666 405.46C167.526 405.88 164.526 406.69 162.666 407.89C160.866 409.03 159.966 410.92 159.966 413.56ZM219.631 424H215.581V363.7H219.631V424ZM259.93 424.9C252.97 424.9 247.42 422.77 243.28 418.51C239.14 414.19 237.07 408.64 237.07 401.86C237.07 395.14 239.14 389.65 243.28 385.39C247.42 381.07 252.97 378.91 259.93 378.91C266.23 378.91 271.36 380.71 275.32 384.31C279.34 387.91 281.35 392.89 281.35 399.25C281.35 400.87 281.2 402.22 280.9 403.3H240.94C241.12 409 242.77 413.44 245.89 416.62C249.01 419.8 253.66 421.39 259.84 421.39C265.42 421.39 269.62 420.37 272.44 418.33C275.32 416.29 276.76 413.38 276.76 409.6V409.06H280.72V409.6C280.72 414.1 278.74 417.79 274.78 420.67C270.82 423.49 265.87 424.9 259.93 424.9ZM259.84 382.33C253.66 382.33 249.01 383.92 245.89 387.1C242.77 390.28 241.12 394.72 240.94 400.42H277.57C277.63 399.94 277.66 399.25 277.66 398.35C277.66 393.19 276.1 389.23 272.98 386.47C269.86 383.71 265.48 382.33 259.84 382.33Z" fill="#191919"/>
</g>
<line id="linie" x1="105.994" y1="436" x2="284.994" y2="435" stroke="black" stroke-width="2"/>
<g id="merita" filter="url(#filter5_d_392_27)">
<path d="M64.99 567H60.94V522.81H64.45V536.04H64.72C65.38 531.96 67.18 528.6 70.12 525.96C73.12 523.26 77.2 521.91 82.36 521.91C87.1 521.91 90.91 523.23 93.79 525.87C96.73 528.51 98.59 532.11 99.37 536.67H99.73C100.45 532.47 102.31 528.96 105.31 526.14C108.31 523.32 112.39 521.91 117.55 521.91C123.19 521.91 127.54 523.74 130.6 527.4C133.72 531.06 135.28 535.86 135.28 541.8V567H131.32V541.53C131.32 530.85 126.43 525.51 116.65 525.51C105.61 525.51 100.09 532.29 100.09 545.85V567H96.13V541.53C96.13 530.85 91.27 525.51 81.55 525.51C75.85 525.51 71.65 527.22 68.95 530.64C66.31 534.06 64.99 539.13 64.99 545.85V567ZM167.325 567.9C160.365 567.9 154.815 565.77 150.675 561.51C146.535 557.19 144.465 551.64 144.465 544.86C144.465 538.14 146.535 532.65 150.675 528.39C154.815 524.07 160.365 521.91 167.325 521.91C173.625 521.91 178.755 523.71 182.715 527.31C186.735 530.91 188.745 535.89 188.745 542.25C188.745 543.87 188.595 545.22 188.295 546.3H148.335C148.515 552 150.165 556.44 153.285 559.62C156.405 562.8 161.055 564.39 167.235 564.39C172.815 564.39 177.015 563.37 179.835 561.33C182.715 559.29 184.155 556.38 184.155 552.6V552.06H188.115V552.6C188.115 557.1 186.135 560.79 182.175 563.67C178.215 566.49 173.265 567.9 167.325 567.9ZM167.235 525.33C161.055 525.33 156.405 526.92 153.285 530.1C150.165 533.28 148.515 537.72 148.335 543.42H184.965C185.025 542.94 185.055 542.25 185.055 541.35C185.055 536.19 183.495 532.23 180.375 529.47C177.255 526.71 172.875 525.33 167.235 525.33ZM202.187 567H198.137V522.81H201.647V534.87H202.007C202.727 531.15 204.437 528.06 207.137 525.6C209.837 523.14 213.407 521.91 217.847 521.91C222.707 521.91 226.397 523.47 228.917 526.59C231.497 529.65 232.787 533.37 232.787 537.75V541.08H228.827V538.11C228.827 533.79 227.867 530.61 225.947 528.57C224.027 526.47 220.967 525.42 216.767 525.42C207.047 525.42 202.187 531.45 202.187 543.51V567ZM244.902 516.69H240.852V506.7H244.902V516.69ZM244.902 567H240.852V522.81H244.902V567ZM282.5 567H273.41C269.03 567 265.67 565.98 263.33 563.94C260.99 561.9 259.82 558.45 259.82 553.59V526.32H251.63V522.81H259.82V511.47H263.87V522.81H282.5V526.32H263.87V554.58C263.87 557.88 264.71 560.16 266.39 561.42C268.07 562.68 270.74 563.31 274.4 563.31H282.5V567ZM317.157 514.98C315.177 516.66 312.567 517.5 309.327 517.5C306.087 517.5 303.477 516.66 301.497 514.98C299.517 513.3 298.527 510.99 298.527 508.05V505.71H301.857V508.14C301.857 512.4 304.347 514.53 309.327 514.53C311.967 514.53 313.857 514.02 314.997 513C316.197 511.92 316.797 510.3 316.797 508.14V505.71H320.127V508.05C320.127 510.99 319.137 513.3 317.157 514.98ZM302.127 567.9C297.807 567.9 294.327 566.91 291.687 564.93C289.047 562.95 287.727 560.25 287.727 556.83C287.727 550.47 292.467 546.75 301.947 545.67L323.817 543.15V539.19C323.817 534.33 322.647 530.85 320.307 528.75C318.027 526.59 314.277 525.51 309.057 525.51C298.197 525.51 292.767 529.74 292.767 538.2V538.65H288.807V538.2C288.807 533.64 290.607 529.8 294.207 526.68C297.867 523.5 302.877 521.91 309.237 521.91C315.357 521.91 319.947 523.5 323.007 526.68C326.067 529.8 327.597 533.82 327.597 538.74V567H324.087V554.49H323.817C322.377 558.75 319.737 562.05 315.897 564.39C312.057 566.73 307.467 567.9 302.127 567.9ZM291.687 556.56C291.687 561.9 295.377 564.57 302.757 564.57C308.757 564.57 313.767 563.07 317.787 560.07C321.807 557.01 323.817 552.63 323.817 546.93V546.12L303.387 548.46C299.247 548.88 296.247 549.69 294.387 550.89C292.587 552.03 291.687 553.92 291.687 556.56Z" fill="black"/>
</g>
<g id="cerc1" filter="url(#filter6_f_392_27)">
<circle cx="28.9391" cy="566.939" r="50.9009" transform="rotate(21.35 28.9391 566.939)" fill="url(#paint3_radial_392_27)"/>
</g>
<g id="raf" filter="url(#filter7_d_392_27)">
<path d="M26.77 698H23.62V663.63H26.35V673.01H26.63C27.19 670.117 28.52 667.713 30.62 665.8C32.72 663.887 35.4967 662.93 38.95 662.93C42.73 662.93 45.6 664.143 47.56 666.57C49.5667 668.95 50.57 671.843 50.57 675.25V677.84H47.49V675.53C47.49 672.17 46.7433 669.697 45.25 668.11C43.7567 666.477 41.3767 665.66 38.11 665.66C30.55 665.66 26.77 670.35 26.77 679.73V698ZM66.0827 698.7C62.7227 698.7 60.016 697.93 57.9627 696.39C55.9093 694.85 54.8827 692.75 54.8827 690.09C54.8827 685.143 58.5693 682.25 65.9427 681.41L82.9527 679.45V676.37C82.9527 672.59 82.0427 669.883 80.2227 668.25C78.4493 666.57 75.5327 665.73 71.4727 665.73C63.026 665.73 58.8027 669.02 58.8027 675.6V675.95H55.7227V675.6C55.7227 672.053 57.1227 669.067 59.9227 666.64C62.7693 664.167 66.666 662.93 71.6127 662.93C76.3727 662.93 79.9427 664.167 82.3227 666.64C84.7027 669.067 85.8927 672.193 85.8927 676.02V698H83.1627V688.27H82.9527C81.8327 691.583 79.7793 694.15 76.7927 695.97C73.806 697.79 70.236 698.7 66.0827 698.7ZM57.9627 689.88C57.9627 694.033 60.8327 696.11 66.5727 696.11C71.2393 696.11 75.136 694.943 78.2627 692.61C81.3893 690.23 82.9527 686.823 82.9527 682.39V681.76L67.0627 683.58C63.8427 683.907 61.5093 684.537 60.0627 685.47C58.6627 686.357 57.9627 687.827 57.9627 689.88ZM100.449 698H97.2988V666.36H91.6288V663.63H97.2988C97.5322 659.43 98.8622 656.303 101.289 654.25C103.715 652.15 107.075 651.1 111.369 651.1H115.359V653.76H110.949C107.402 653.76 104.742 654.53 102.969 656.07C101.195 657.61 100.355 660.13 100.449 663.63H115.359V666.36H100.449V698ZM123.759 658.87H120.679V651.1H123.759V658.87ZM123.759 698H120.679V663.63H123.759V698ZM136.213 698H133.063V663.63H135.793V674.48H136.073C136.773 671.307 138.43 668.6 141.043 666.36C143.657 664.073 146.947 662.93 150.913 662.93C155.58 662.93 159.197 664.4 161.763 667.34C164.33 670.28 165.613 673.967 165.613 678.4V698H162.463V678.19C162.463 674.223 161.46 671.167 159.453 669.02C157.447 666.827 154.39 665.73 150.283 665.73C145.803 665.73 142.327 667.13 139.853 669.93C137.427 672.73 136.213 676.603 136.213 681.55V698ZM183.866 698.7C180.506 698.7 177.799 697.93 175.746 696.39C173.693 694.85 172.666 692.75 172.666 690.09C172.666 685.143 176.353 682.25 183.726 681.41L200.736 679.45V676.37C200.736 672.59 199.826 669.883 198.006 668.25C196.233 666.57 193.316 665.73 189.256 665.73C180.809 665.73 176.586 669.02 176.586 675.6V675.95H173.506V675.6C173.506 672.053 174.906 669.067 177.706 666.64C180.553 664.167 184.449 662.93 189.396 662.93C194.156 662.93 197.726 664.167 200.106 666.64C202.486 669.067 203.676 672.193 203.676 676.02V698H200.946V688.27H200.736C199.616 691.583 197.563 694.15 194.576 695.97C191.589 697.79 188.019 698.7 183.866 698.7ZM175.746 689.88C175.746 694.033 178.616 696.11 184.356 696.11C189.023 696.11 192.919 694.943 196.046 692.61C199.173 690.23 200.736 686.823 200.736 682.39V681.76L184.846 683.58C181.626 683.907 179.293 684.537 177.846 685.47C176.446 686.357 175.746 687.827 175.746 689.88ZM215.852 698H212.702V663.63H215.432V673.92H215.642C216.155 670.747 217.555 668.133 219.842 666.08C222.175 663.98 225.349 662.93 229.362 662.93C233.049 662.93 236.012 663.957 238.252 666.01C240.539 668.063 241.985 670.863 242.592 674.41H242.872C243.432 671.143 244.879 668.413 247.212 666.22C249.545 664.027 252.719 662.93 256.732 662.93C261.119 662.93 264.502 664.353 266.882 667.2C269.309 670.047 270.522 673.78 270.522 678.4V698H267.442V678.19C267.442 669.883 263.639 665.73 256.032 665.73C247.445 665.73 243.152 671.003 243.152 681.55V698H240.072V678.19C240.072 669.883 236.292 665.73 228.732 665.73C224.299 665.73 221.032 667.06 218.932 669.72C216.879 672.38 215.852 676.323 215.852 681.55V698ZM295.446 698.7C290.033 698.7 285.716 697.043 282.496 693.73C279.276 690.37 277.666 686.053 277.666 680.78C277.666 675.553 279.276 671.283 282.496 667.97C285.716 664.61 290.033 662.93 295.446 662.93C300.346 662.93 304.336 664.33 307.416 667.13C310.543 669.93 312.106 673.803 312.106 678.75C312.106 680.01 311.989 681.06 311.756 681.9H280.676C280.816 686.333 282.099 689.787 284.526 692.26C286.953 694.733 290.569 695.97 295.376 695.97C299.716 695.97 302.983 695.177 305.176 693.59C307.416 692.003 308.536 689.74 308.536 686.8V686.38H311.616V686.8C311.616 690.3 310.076 693.17 306.996 695.41C303.916 697.603 300.066 698.7 295.446 698.7ZM295.376 665.59C290.569 665.59 286.953 666.827 284.526 669.3C282.099 671.773 280.816 675.227 280.676 679.66H309.166C309.213 679.287 309.236 678.75 309.236 678.05C309.236 674.037 308.023 670.957 305.596 668.81C303.169 666.663 299.763 665.59 295.376 665.59ZM322.561 698H319.411V663.63H322.141V674.48H322.421C323.121 671.307 324.778 668.6 327.391 666.36C330.004 664.073 333.294 662.93 337.261 662.93C341.928 662.93 345.544 664.4 348.111 667.34C350.678 670.28 351.961 673.967 351.961 678.4V698H348.811V678.19C348.811 674.223 347.808 671.167 345.801 669.02C343.794 666.827 340.738 665.73 336.631 665.73C332.151 665.73 328.674 667.13 326.201 669.93C323.774 672.73 322.561 676.603 322.561 681.55V698ZM380.994 698H373.924C370.517 698 367.904 697.207 366.084 695.62C364.264 694.033 363.354 691.35 363.354 687.57V666.36H356.984V663.63H363.354V654.81H366.504V663.63H380.994V666.36H366.504V688.34C366.504 690.907 367.157 692.68 368.464 693.66C369.77 694.64 371.847 695.13 374.694 695.13H380.994V698ZM388.418 682.6H385.828C385.828 679.567 385.735 674.76 385.548 668.18C385.362 661.6 385.268 657.54 385.268 656V651.1H388.978V656C388.978 657.54 388.885 661.6 388.698 668.18C388.512 674.76 388.418 679.567 388.418 682.6ZM388.908 698H385.408V689.25H388.908V698Z" fill="black"/>
</g>
<g id="cerc4" filter="url(#filter8_f_392_27)">
<circle cx="339.141" cy="792.141" r="63.4082" transform="rotate(21.35 339.141 792.141)" fill="url(#paint4_radial_392_27)"/>
</g>
<g id="cerc3_2" filter="url(#filter9_f_392_27)">
<circle cx="111.5" cy="776.5" r="20.5" fill="url(#paint5_linear_392_27)"/>
</g>
<g id="cerc5" filter="url(#filter10_f_392_27)">
<circle cx="43.0203" cy="94.0206" r="68.6666" transform="rotate(30.5107 43.0203 94.0206)" fill="url(#paint6_linear_392_27)" fill-opacity="0.98"/>
</g>
</g>
<defs>
<filter id="filter0_f_392_27" x="222" y="463" width="127" height="127" filterUnits="userSpaceOnUse" color-interpolation-filters="sRGB">
<feFlood flood-opacity="0" result="BackgroundImageFix"/>
<feBlend mode="normal" in="SourceGraphic" in2="BackgroundImageFix" result="shape"/>
<feGaussianBlur stdDeviation="11.5" result="effect1_foregroundBlur_392_27"/>
</filter>
<filter id="filter1_f_392_27" x="68.001" y="267" width="127" height="127" filterUnits="userSpaceOnUse" color-interpolation-filters="sRGB">
<feFlood flood-opacity="0" result="BackgroundImageFix"/>
<feBlend mode="normal" in="SourceGraphic" in2="BackgroundImageFix" result="shape"/>
<feGaussianBlur stdDeviation="11.5" result="effect1_foregroundBlur_392_27"/>
</filter>
<filter id="filter2_f_392_27" x="267.088" y="54.0881" width="132.018" height="132.018" filterUnits="userSpaceOnUse" color-interpolation-filters="sRGB">
<feFlood flood-opacity="0" result="BackgroundImageFix"/>
<feBlend mode="normal" in="SourceGraphic" in2="BackgroundImageFix" result="shape"/>
<feGaussianBlur stdDeviation="9.5" result="effect1_foregroundBlur_392_27"/>
</filter>
<filter id="filter3_d_392_27" x="37.4199" y="220.8" width="311.827" height="94.1" filterUnits="userSpaceOnUse" color-interpolation-filters="sRGB">
<feFlood flood-opacity="0" result="BackgroundImageFix"/>
<feColorMatrix in="SourceAlpha" type="matrix" values="0 0 0 0 0 0 0 0 0 0 0 0 0 0 0 0 0 0 127 0" result="hardAlpha"/>
<feOffset dx="-2" dy="7"/>
<feGaussianBlur stdDeviation="8"/>
<feComposite in2="hardAlpha" operator="out"/>
<feColorMatrix type="matrix" values="0 0 0 0 0 0 0 0 0 0 0 0 0 0 0 0 0 0 0.65 0"/>
<feBlend mode="normal" in2="BackgroundImageFix" result="effect1_dropShadow_392_27"/>
<feBlend mode="normal" in="SourceGraphic" in2="effect1_dropShadow_392_27" result="shape"/>
</filter>
<filter id="filter4_d_392_27" x="93.8096" y="354.7" width="201.54" height="93.2001" filterUnits="userSpaceOnUse" color-interpolation-filters="sRGB">
<feFlood flood-opacity="0" result="BackgroundImageFix"/>
<feColorMatrix in="SourceAlpha" type="matrix" values="0 0 0 0 0 0 0 0 0 0 0 0 0 0 0 0 0 0 127 0" result="hardAlpha"/>
<feOffset dx="-2" dy="7"/>
<feGaussianBlur stdDeviation="8"/>
<feComposite in2="hardAlpha" operator="out"/>
<feColorMatrix type="matrix" values="0 0 0 0 0 0 0 0 0 0 0 0 0 0 0 0 0 0 0.65 0"/>
<feBlend mode="normal" in2="BackgroundImageFix" result="effect1_dropShadow_392_27"/>
<feBlend mode="normal" in="SourceGraphic" in2="effect1_dropShadow_392_27" result="shape"/>
</filter>
<filter id="filter5_d_392_27" x="42.9404" y="496.71" width="298.656" height="94.19" filterUnits="userSpaceOnUse" color-interpolation-filters="sRGB">
<feFlood flood-opacity="0" result="BackgroundImageFix"/>
<feColorMatrix in="SourceAlpha" type="matrix" values="0 0 0 0 0 0 0 0 0 0 0 0 0 0 0 0 0 0 127 0" result="hardAlpha"/>
<feOffset dx="-2" dy="7"/>
<feGaussianBlur stdDeviation="8"/>
<feComposite in2="hardAlpha" operator="out"/>
<feColorMatrix type="matrix" values="0 0 0 0 0 0 0 0 0 0 0 0 0 0 0 0 0 0 0.65 0"/>
<feBlend mode="normal" in2="BackgroundImageFix" result="effect1_dropShadow_392_27"/>
<feBlend mode="normal" in="SourceGraphic" in2="effect1_dropShadow_392_27" result="shape"/>
</filter>
<filter id="filter6_f_392_27" x="-29.9756" y="508.024" width="117.829" height="117.829" filterUnits="userSpaceOnUse" color-interpolation-filters="sRGB">
<feFlood flood-opacity="0" result="BackgroundImageFix"/>
<feBlend mode="normal" in="SourceGraphic" in2="BackgroundImageFix" result="shape"/>
<feGaussianBlur stdDeviation="4" result="effect1_foregroundBlur_392_27"/>
</filter>
<filter id="filter7_d_392_27" x="5.62012" y="642.1" width="397.358" height="79.6" filterUnits="userSpaceOnUse" color-interpolation-filters="sRGB">
<feFlood flood-opacity="0" result="BackgroundImageFix"/>
<feColorMatrix in="SourceAlpha" type="matrix" values="0 0 0 0 0 0 0 0 0 0 0 0 0 0 0 0 0 0 127 0" result="hardAlpha"/>
<feOffset dx="-2" dy="7"/>
<feGaussianBlur stdDeviation="8"/>
<feComposite in2="hardAlpha" operator="out"/>
<feColorMatrix type="matrix" values="0 0 0 0 0 0 0 0 0 0 0 0 0 0 0 0 0 0 0.65 0"/>
<feBlend mode="normal" in2="BackgroundImageFix" result="effect1_dropShadow_392_27"/>
<feBlend mode="normal" in="SourceGraphic" in2="effect1_dropShadow_392_27" result="shape"/>
</filter>
<filter id="filter8_f_392_27" x="267.716" y="720.716" width="142.851" height="142.85" filterUnits="userSpaceOnUse" color-interpolation-filters="sRGB">
<feFlood flood-opacity="0" result="BackgroundImageFix"/>
<feBlend mode="normal" in="SourceGraphic" in2="BackgroundImageFix" result="shape"/>
<feGaussianBlur stdDeviation="4" result="effect1_foregroundBlur_392_27"/>
</filter>
<filter id="filter9_f_392_27" x="68" y="733" width="87" height="87" filterUnits="userSpaceOnUse" color-interpolation-filters="sRGB">
<feFlood flood-opacity="0" result="BackgroundImageFix"/>
<feBlend mode="normal" in="SourceGraphic" in2="BackgroundImageFix" result="shape"/>
<feGaussianBlur stdDeviation="11.5" result="effect1_foregroundBlur_392_27"/>
</filter>
<filter id="filter10_f_392_27" x="-34.6572" y="16.3431" width="155.355" height="155.355" filterUnits="userSpaceOnUse" color-interpolation-filters="sRGB">
<feFlood flood-opacity="0" result="BackgroundImageFix"/>
<feBlend mode="normal" in="SourceGraphic" in2="BackgroundImageFix" result="shape"/>
<feGaussianBlur stdDeviation="4.5" result="effect1_foregroundBlur_392_27"/>
</filter>
<linearGradient id="paint0_linear_392_27" x1="258.135" y1="540.912" x2="314.872" y2="548.574" gradientUnits="userSpaceOnUse">
<stop offset="0.615385" stop-color="#E8B4B4"/>
<stop offset="1" stop-color="#B28A8A"/>
</linearGradient>
<linearGradient id="paint1_linear_392_27" x1="104.136" y1="344.912" x2="160.873" y2="352.574" gradientUnits="userSpaceOnUse">
<stop offset="0.615385" stop-color="#E8B4B4"/>
<stop offset="1" stop-color="#B28A8A"/>
</linearGradient>
<linearGradient id="paint2_linear_392_27" x1="301.335" y1="136.825" x2="367.188" y2="145.718" gradientUnits="userSpaceOnUse">
<stop stop-color="#E8B4B4"/>
<stop offset="1" stop-color="#B28A8A"/>
</linearGradient>
<radialGradient id="paint3_radial_392_27" cx="0" cy="0" r="1" gradientUnits="userSpaceOnUse" gradientTransform="translate(5.67869 591.861) rotate(2.68451) scale(60.2411)">
<stop offset="0.620192" stop-color="#E8B4B4"/>
<stop offset="1" stop-color="#B28A8A"/>
</radialGradient>
<radialGradient id="paint4_radial_392_27" cx="0" cy="0" r="1" gradientUnits="userSpaceOnUse" gradientTransform="translate(310.165 823.187) rotate(2.68451) scale(75.0434)">
<stop offset="0.620192" stop-color="#E8B4B4"/>
<stop offset="1" stop-color="#B28A8A"/>
</radialGradient>
<linearGradient id="paint5_linear_392_27" x1="97.6486" y1="783.795" x2="126.367" y2="787.673" gradientUnits="userSpaceOnUse">
<stop offset="0.615385" stop-color="#E8B4B4"/>
<stop offset="1" stop-color="#B28A8A"/>
</linearGradient>
<linearGradient id="paint6_linear_392_27" x1="43.0203" y1="52.2639" x2="35.5969" y2="145.985" gradientUnits="userSpaceOnUse">
<stop offset="0.192308" stop-color="#E8B4B4"/>
<stop offset="0.581731" stop-color="#FFD9D9"/>
</linearGradient>
</defs>
</svg>
