<svg width="402" height="874" viewBox="0 0 402 874" fill="none" xmlns="http://www.w3.org/2000/svg">
<g id="iPhone 16 Pro - 9" clip-path="url(#clip0_453_22)">
<g id="zc1" filter="url(#filter0_f_453_22)">
<circle cx="332.795" cy="106.408" r="53.5047" transform="rotate(21.35 332.795 106.408)" fill="url(#paint0_radial_453_22)"/>
</g>
<g id="zc2" filter="url(#filter1_f_453_22)">
<circle cx="287.075" cy="576.074" r="20.1276" transform="rotate(21.35 287.075 576.074)" fill="url(#paint1_radial_453_22)"/>
</g>
<g id="zc3" filter="url(#filter2_f_453_22)">
<circle cx="126.075" cy="287.074" r="20.1276" transform="rotate(21.35 126.075 287.074)" fill="url(#paint2_radial_453_22)"/>
</g>
<g id="zc4" filter="url(#filter3_f_453_22)">
<circle cx="100.086" cy="762.087" r="37.1202" transform="rotate(21.35 100.086 762.087)" fill="url(#paint3_radial_453_22)"/>
</g>
<g id="tale" filter="url(#filter4_d_453_22)">
<mask id="path-5-outside-1_453_22" maskUnits="userSpaceOnUse" x="115" y="473" width="154" height="57" fill="black">
<rect fill="white" x="115" y="473" width="154" height="57"/>
<path d="M144.16 528H136.08C132.187 528 129.2 527.093 127.12 525.28C125.04 523.467 124 520.4 124 516.08V491.84H116.72V488.72H124V478.64H127.6V488.72H144.16V491.84H127.6V516.96C127.6 519.893 128.347 521.92 129.84 523.04C131.333 524.16 133.707 524.72 136.96 524.72H144.16V528ZM168.806 528.8C164.966 528.8 161.872 527.92 159.526 526.16C157.179 524.4 156.006 522 156.006 518.96C156.006 513.307 160.219 510 168.646 509.04L188.086 506.8V503.28C188.086 498.96 187.046 495.867 184.966 494C182.939 492.08 179.606 491.12 174.966 491.12C165.312 491.12 160.486 494.88 160.486 502.4V502.8H156.966V502.4C156.966 498.347 158.566 494.933 161.766 492.16C165.019 489.333 169.472 487.92 175.126 487.92C180.566 487.92 184.646 489.333 187.366 492.16C190.086 494.933 191.446 498.507 191.446 502.88V528H188.326V516.88H188.086C186.806 520.667 184.459 523.6 181.046 525.68C177.632 527.76 173.552 528.8 168.806 528.8ZM159.526 518.72C159.526 523.467 162.806 525.84 169.366 525.84C174.699 525.84 179.152 524.507 182.726 521.84C186.299 519.12 188.086 515.227 188.086 510.16V509.44L169.926 511.52C166.246 511.893 163.579 512.613 161.926 513.68C160.326 514.693 159.526 516.373 159.526 518.72ZM212.561 528H208.961V474.4H212.561V528ZM248.382 528.8C242.195 528.8 237.262 526.907 233.582 523.12C229.902 519.28 228.062 514.347 228.062 508.32C228.062 502.347 229.902 497.467 233.582 493.68C237.262 489.84 242.195 487.92 248.382 487.92C253.982 487.92 258.542 489.52 262.062 492.72C265.635 495.92 267.422 500.347 267.422 506C267.422 507.44 267.289 508.64 267.022 509.6H231.502C231.662 514.667 233.129 518.613 235.902 521.44C238.675 524.267 242.809 525.68 248.302 525.68C253.262 525.68 256.995 524.773 259.502 522.96C262.062 521.147 263.342 518.56 263.342 515.2V514.72H266.862V515.2C266.862 519.2 265.102 522.48 261.582 525.04C258.062 527.547 253.662 528.8 248.382 528.8ZM248.302 490.96C242.809 490.96 238.675 492.373 235.902 495.2C233.129 498.027 231.662 501.973 231.502 507.04H264.062C264.115 506.613 264.142 506 264.142 505.2C264.142 500.613 262.755 497.093 259.982 494.64C257.209 492.187 253.315 490.96 248.302 490.96Z"/>
</mask>
<path d="M144.16 528H136.08C132.187 528 129.2 527.093 127.12 525.28C125.04 523.467 124 520.4 124 516.08V491.84H116.72V488.72H124V478.64H127.6V488.72H144.16V491.84H127.6V516.96C127.6 519.893 128.347 521.92 129.84 523.04C131.333 524.16 133.707 524.72 136.96 524.72H144.16V528ZM168.806 528.8C164.966 528.8 161.872 527.92 159.526 526.16C157.179 524.4 156.006 522 156.006 518.96C156.006 513.307 160.219 510 168.646 509.04L188.086 506.8V503.28C188.086 498.96 187.046 495.867 184.966 494C182.939 492.08 179.606 491.12 174.966 491.12C165.312 491.12 160.486 494.88 160.486 502.4V502.8H156.966V502.4C156.966 498.347 158.566 494.933 161.766 492.16C165.019 489.333 169.472 487.92 175.126 487.92C180.566 487.92 184.646 489.333 187.366 492.16C190.086 494.933 191.446 498.507 191.446 502.88V528H188.326V516.88H188.086C186.806 520.667 184.459 523.6 181.046 525.68C177.632 527.76 173.552 528.8 168.806 528.8ZM159.526 518.72C159.526 523.467 162.806 525.84 169.366 525.84C174.699 525.84 179.152 524.507 182.726 521.84C186.299 519.12 188.086 515.227 188.086 510.16V509.44L169.926 511.52C166.246 511.893 163.579 512.613 161.926 513.68C160.326 514.693 159.526 516.373 159.526 518.72ZM212.561 528H208.961V474.4H212.561V528ZM248.382 528.8C242.195 528.8 237.262 526.907 233.582 523.12C229.902 519.28 228.062 514.347 228.062 508.32C228.062 502.347 229.902 497.467 233.582 493.68C237.262 489.84 242.195 487.92 248.382 487.92C253.982 487.92 258.542 489.52 262.062 492.72C265.635 495.92 267.422 500.347 267.422 506C267.422 507.44 267.289 508.64 267.022 509.6H231.502C231.662 514.667 233.129 518.613 235.902 521.44C238.675 524.267 242.809 525.68 248.302 525.68C253.262 525.68 256.995 524.773 259.502 522.96C262.062 521.147 263.342 518.56 263.342 515.2V514.72H266.862V515.2C266.862 519.2 265.102 522.48 261.582 525.04C258.062 527.547 253.662 528.8 248.382 528.8ZM248.302 490.96C242.809 490.96 238.675 492.373 235.902 495.2C233.129 498.027 231.662 501.973 231.502 507.04H264.062C264.115 506.613 264.142 506 264.142 505.2C264.142 500.613 262.755 497.093 259.982 494.64C257.209 492.187 253.315 490.96 248.302 490.96Z" fill="#AE8625"/>
<path d="M144.16 528V529H145.16V528H144.16ZM127.12 525.28L127.777 524.526L127.777 524.526L127.12 525.28ZM124 491.84H125V490.84H124V491.84ZM116.72 491.84H115.72V492.84H116.72V491.84ZM116.72 488.72V487.72H115.72V488.72H116.72ZM124 488.72V489.72H125V488.72H124ZM124 478.64V477.64H123V478.64H124ZM127.6 478.64H128.6V477.64H127.6V478.64ZM127.6 488.72H126.6V489.72H127.6V488.72ZM144.16 488.72H145.16V487.72H144.16V488.72ZM144.16 491.84V492.84H145.16V491.84H144.16ZM127.6 491.84V490.84H126.6V491.84H127.6ZM129.84 523.04L129.24 523.84L129.84 523.04ZM144.16 524.72H145.16V523.72H144.16V524.72ZM144.16 528V527H136.08V528V529H144.16V528ZM136.08 528V527C132.33 527 129.612 526.126 127.777 524.526L127.12 525.28L126.463 526.034C128.788 528.06 132.044 529 136.08 529V528ZM127.12 525.28L127.777 524.526C126.013 522.988 125 520.273 125 516.08H124H123C123 520.527 124.067 523.945 126.463 526.034L127.12 525.28ZM124 516.08H125V491.84H124H123V516.08H124ZM124 491.84V490.84H116.72V491.84V492.84H124V491.84ZM116.72 491.84H117.72V488.72H116.72H115.72V491.84H116.72ZM116.72 488.72V489.72H124V488.72V487.72H116.72V488.72ZM124 488.72H125V478.64H124H123V488.72H124ZM124 478.64V479.64H127.6V478.64V477.64H124V478.64ZM127.6 478.64H126.6V488.72H127.6H128.6V478.64H127.6ZM127.6 488.72V489.72H144.16V488.72V487.72H127.6V488.72ZM144.16 488.72H143.16V491.84H144.16H145.16V488.72H144.16ZM144.16 491.84V490.84H127.6V491.84V492.84H144.16V491.84ZM127.6 491.84H126.6V516.96H127.6H128.6V491.84H127.6ZM127.6 516.96H126.6C126.6 520.025 127.378 522.443 129.24 523.84L129.84 523.04L130.44 522.24C129.316 521.397 128.6 519.761 128.6 516.96H127.6ZM129.84 523.04L129.24 523.84C130.994 525.155 133.634 525.72 136.96 525.72V524.72V523.72C133.78 523.72 131.673 523.165 130.44 522.24L129.84 523.04ZM136.96 524.72V525.72H144.16V524.72V523.72H136.96V524.72ZM144.16 524.72H143.16V528H144.16H145.16V524.72H144.16ZM159.526 526.16L160.126 525.36L160.126 525.36L159.526 526.16ZM168.646 509.04L168.759 510.034L168.76 510.033L168.646 509.04ZM188.086 506.8L188.2 507.793L189.086 507.691V506.8H188.086ZM184.966 494L184.278 494.726L184.288 494.735L184.298 494.744L184.966 494ZM160.486 502.8V503.8H161.486V502.8H160.486ZM156.966 502.8H155.966V503.8H156.966V502.8ZM161.766 492.16L162.421 492.916L162.421 492.915L161.766 492.16ZM187.366 492.16L186.645 492.853L186.652 492.86L187.366 492.16ZM191.446 528V529H192.446V528H191.446ZM188.326 528H187.326V529H188.326V528ZM188.326 516.88H189.326V515.88H188.326V516.88ZM188.086 516.88V515.88H187.368L187.138 516.56L188.086 516.88ZM181.046 525.68L181.566 526.534L181.046 525.68ZM182.726 521.84L183.324 522.641L183.331 522.636L182.726 521.84ZM188.086 509.44H189.086V508.319L187.972 508.446L188.086 509.44ZM169.926 511.52L170.027 512.515L170.039 512.514L169.926 511.52ZM161.926 513.68L162.461 514.525L162.468 514.52L161.926 513.68ZM168.806 528.8V527.8C165.115 527.8 162.252 526.955 160.126 525.36L159.526 526.16L158.926 526.96C161.492 528.885 164.816 529.8 168.806 529.8V528.8ZM159.526 526.16L160.126 525.36C158.041 523.797 157.006 521.699 157.006 518.96H156.006H155.006C155.006 522.301 156.317 525.003 158.926 526.96L159.526 526.16ZM156.006 518.96H157.006C157.006 516.421 157.933 514.479 159.783 513.027C161.682 511.536 164.632 510.504 168.759 510.034L168.646 509.04L168.532 508.046C164.233 508.536 160.862 509.637 158.548 511.453C156.185 513.308 155.006 515.846 155.006 518.96H156.006ZM168.646 509.04L168.76 510.033L188.2 507.793L188.086 506.8L187.971 505.807L168.531 508.047L168.646 509.04ZM188.086 506.8H189.086V503.28H188.086H187.086V506.8H188.086ZM188.086 503.28H189.086C189.086 498.83 188.017 495.395 185.634 493.256L184.966 494L184.298 494.744C186.074 496.338 187.086 499.09 187.086 503.28H188.086ZM184.966 494L185.653 493.274C183.351 491.093 179.702 490.12 174.966 490.12V491.12V492.12C179.509 492.12 182.527 493.067 184.278 494.726L184.966 494ZM174.966 491.12V490.12C170.037 490.12 166.156 491.075 163.491 493.151C160.779 495.264 159.486 498.41 159.486 502.4H160.486H161.486C161.486 498.87 162.606 496.376 164.72 494.729C166.882 493.045 170.241 492.12 174.966 492.12V491.12ZM160.486 502.4H159.486V502.8H160.486H161.486V502.4H160.486ZM160.486 502.8V501.8H156.966V502.8V503.8H160.486V502.8ZM156.966 502.8H157.966V502.4H156.966H155.966V502.8H156.966ZM156.966 502.4H157.966C157.966 498.651 159.429 495.509 162.421 492.916L161.766 492.16L161.111 491.404C157.703 494.358 155.966 498.042 155.966 502.4H156.966ZM161.766 492.16L162.421 492.915C165.442 490.29 169.637 488.92 175.126 488.92V487.92V486.92C169.308 486.92 164.595 488.377 161.11 491.405L161.766 492.16ZM175.126 487.92V488.92C180.401 488.92 184.177 490.289 186.645 492.853L187.366 492.16L188.086 491.467C185.114 488.378 180.73 486.92 175.126 486.92V487.92ZM187.366 492.16L186.652 492.86C189.165 495.422 190.446 498.733 190.446 502.88H191.446H192.446C192.446 498.281 191.007 494.444 188.08 491.46L187.366 492.16ZM191.446 502.88H190.446V528H191.446H192.446V502.88H191.446ZM191.446 528V527H188.326V528V529H191.446V528ZM188.326 528H189.326V516.88H188.326H187.326V528H188.326ZM188.326 516.88V515.88H188.086V516.88V517.88H188.326V516.88ZM188.086 516.88L187.138 516.56C185.934 520.124 183.738 522.868 180.525 524.826L181.046 525.68L181.566 526.534C185.18 524.332 187.678 521.209 189.033 517.2L188.086 516.88ZM181.046 525.68L180.525 524.826C177.296 526.794 173.403 527.8 168.806 527.8V528.8V529.8C173.701 529.8 177.969 528.726 181.566 526.534L181.046 525.68ZM159.526 518.72H158.526C158.526 521.351 159.452 523.461 161.399 524.87C163.287 526.236 165.995 526.84 169.366 526.84V525.84V524.84C166.176 524.84 163.965 524.258 162.572 523.25C161.239 522.285 160.526 520.836 160.526 518.72H159.526ZM169.366 525.84V526.84C174.871 526.84 179.546 525.461 183.324 522.641L182.726 521.84L182.128 521.039C178.759 523.553 174.527 524.84 169.366 524.84V525.84ZM182.726 521.84L183.331 522.636C187.187 519.7 189.086 515.493 189.086 510.16H188.086H187.086C187.086 514.96 185.411 518.54 182.12 521.044L182.726 521.84ZM188.086 510.16H189.086V509.44H188.086H187.086V510.16H188.086ZM188.086 509.44L187.972 508.446L169.812 510.526L169.926 511.52L170.039 512.514L188.199 510.434L188.086 509.44ZM169.926 511.52L169.825 510.525C166.103 510.903 163.241 511.641 161.383 512.84L161.926 513.68L162.468 514.52C163.917 513.585 166.389 512.884 170.027 512.515L169.926 511.52ZM161.926 513.68L161.391 512.835C159.43 514.077 158.526 516.125 158.526 518.72H159.526H160.526C160.526 516.622 161.222 515.31 162.461 514.525L161.926 513.68ZM212.561 528V529H213.561V528H212.561ZM208.961 528H207.961V529H208.961V528ZM208.961 474.4V473.4H207.961V474.4H208.961ZM212.561 474.4H213.561V473.4H212.561V474.4ZM212.561 528V527H208.961V528V529H212.561V528ZM208.961 528H209.961V474.4H208.961H207.961V528H208.961ZM208.961 474.4V475.4H212.561V474.4V473.4H208.961V474.4ZM212.561 474.4H211.561V528H212.561H213.561V474.4H212.561ZM233.582 523.12L232.86 523.812L232.865 523.817L233.582 523.12ZM233.582 493.68L234.299 494.377L234.304 494.372L233.582 493.68ZM262.062 492.72L261.389 493.46L261.395 493.465L262.062 492.72ZM267.022 509.6V510.6H267.782L267.985 509.868L267.022 509.6ZM231.502 509.6V508.6H230.47L230.502 509.632L231.502 509.6ZM235.902 521.44L235.188 522.14L235.188 522.14L235.902 521.44ZM259.502 522.96L258.924 522.144L258.916 522.15L259.502 522.96ZM263.342 514.72V513.72H262.342V514.72H263.342ZM266.862 514.72H267.862V513.72H266.862V514.72ZM261.582 525.04L262.162 525.855L262.17 525.849L261.582 525.04ZM231.502 507.04L230.502 507.008L230.47 508.04H231.502V507.04ZM264.062 507.04V508.04H264.945L265.054 507.164L264.062 507.04ZM259.982 494.64L259.319 495.389L259.319 495.389L259.982 494.64ZM248.382 528.8V527.8C242.415 527.8 237.758 525.983 234.299 522.423L233.582 523.12L232.865 523.817C236.765 527.831 241.975 529.8 248.382 529.8V528.8ZM233.582 523.12L234.304 522.428C230.826 518.799 229.062 514.126 229.062 508.32H228.062H227.062C227.062 514.567 228.977 519.761 232.86 523.812L233.582 523.12ZM228.062 508.32H229.062C229.062 502.57 230.825 497.952 234.299 494.377L233.582 493.68L232.865 492.983C228.979 496.981 227.062 502.123 227.062 508.32H228.062ZM233.582 493.68L234.304 494.372C237.764 490.761 242.419 488.92 248.382 488.92V487.92V486.92C241.971 486.92 236.76 488.919 232.86 492.988L233.582 493.68ZM248.382 487.92V488.92C253.78 488.92 258.085 490.456 261.389 493.46L262.062 492.72L262.735 491.98C258.999 488.584 254.184 486.92 248.382 486.92V487.92ZM262.062 492.72L261.395 493.465C264.718 496.441 266.422 500.575 266.422 506H267.422H268.422C268.422 500.118 266.552 495.399 262.729 491.975L262.062 492.72ZM267.422 506H266.422C266.422 507.386 266.293 508.489 266.058 509.332L267.022 509.6L267.985 509.868C268.284 508.791 268.422 507.494 268.422 506H267.422ZM267.022 509.6V508.6H231.502V509.6V510.6H267.022V509.6ZM231.502 509.6L230.502 509.632C230.668 514.876 232.194 519.089 235.188 522.14L235.902 521.44L236.616 520.74C234.063 518.138 232.656 514.457 232.501 509.568L231.502 509.6ZM235.902 521.44L235.188 522.14C238.213 525.223 242.646 526.68 248.302 526.68V525.68V524.68C242.971 524.68 239.138 523.31 236.616 520.74L235.902 521.44ZM248.302 525.68V526.68C253.355 526.68 257.336 525.761 260.088 523.77L259.502 522.96L258.916 522.15C256.655 523.785 253.168 524.68 248.302 524.68V525.68ZM259.502 522.96L260.08 523.776C262.926 521.76 264.342 518.857 264.342 515.2H263.342H262.342C262.342 518.263 261.198 520.533 258.924 522.144L259.502 522.96ZM263.342 515.2H264.342V514.72H263.342H262.342V515.2H263.342ZM263.342 514.72V515.72H266.862V514.72V513.72H263.342V514.72ZM266.862 514.72H265.862V515.2H266.862H267.862V514.72H266.862ZM266.862 515.2H265.862C265.862 518.849 264.282 521.84 260.994 524.231L261.582 525.04L262.17 525.849C265.922 523.12 267.862 519.551 267.862 515.2H266.862ZM261.582 525.04L261.002 524.225C257.686 526.587 253.501 527.8 248.382 527.8V528.8V529.8C253.823 529.8 258.438 528.506 262.162 525.855L261.582 525.04ZM248.302 490.96V489.96C242.646 489.96 238.213 491.417 235.188 494.5L235.902 495.2L236.616 495.9C239.138 493.33 242.971 491.96 248.302 491.96V490.96ZM235.902 495.2L235.188 494.5C232.194 497.551 230.668 501.764 230.502 507.008L231.502 507.04L232.501 507.072C232.656 502.183 234.063 498.502 236.616 495.9L235.902 495.2ZM231.502 507.04V508.04H264.062V507.04V506.04H231.502V507.04ZM264.062 507.04L265.054 507.164C265.115 506.675 265.142 506.013 265.142 505.2H264.142H263.142C263.142 505.987 263.115 506.552 263.07 506.916L264.062 507.04ZM264.142 505.2H265.142C265.142 500.401 263.682 496.578 260.644 493.891L259.982 494.64L259.319 495.389C261.828 497.609 263.142 500.826 263.142 505.2H264.142ZM259.982 494.64L260.644 493.891C257.632 491.226 253.472 489.96 248.302 489.96V490.96V491.96C253.158 491.96 256.785 493.147 259.319 495.389L259.982 494.64Z" fill="#EDC967" mask="url(#path-5-outside-1_453_22)"/>
</g>
<g id="Sprancenele" filter="url(#filter5_d_453_22)">
<path d="M40.72 380.6C35.12 380.6 30.92 379.38 28.12 376.94C25.32 374.5 23.92 371.36 23.92 367.52V367.16H26.62V367.88C26.62 374.64 31.32 378.02 40.72 378.02C49.16 378.02 53.38 375.4 53.38 370.16C53.38 367.72 52.64 365.9 51.16 364.7C49.68 363.5 47.22 362.52 43.78 361.76L36.16 360.2C32.48 359.44 29.58 358.28 27.46 356.72C25.38 355.12 24.34 352.78 24.34 349.7C24.34 346.78 25.64 344.3 28.24 342.26C30.84 340.22 34.68 339.2 39.76 339.2C44.96 339.2 48.88 340.44 51.52 342.92C54.2 345.4 55.54 348.52 55.54 352.28V352.64H52.84V351.92C52.84 345.2 48.46 341.84 39.7 341.84C31.26 341.84 27.04 344.36 27.04 349.4C27.04 351.92 27.78 353.76 29.26 354.92C30.74 356.04 33.28 357 36.88 357.8L44.44 359.36C48.12 360.12 50.98 361.32 53.02 362.96C55.06 364.56 56.08 366.86 56.08 369.86C56.08 372.86 54.76 375.4 52.12 377.48C49.52 379.56 45.72 380.6 40.72 380.6ZM64.8709 390.2H62.1709V350.54H64.5109V358.88H64.9909C65.7109 356.2 67.2109 354.04 69.4909 352.4C71.7709 350.76 74.6109 349.94 78.0109 349.94C82.5309 349.94 86.0909 351.38 88.6909 354.26C91.2909 357.1 92.5909 360.76 92.5909 365.24C92.5909 369.8 91.2709 373.5 88.6309 376.34C86.0309 379.18 82.4109 380.6 77.7709 380.6C74.5709 380.6 71.7909 379.76 69.4309 378.08C67.1109 376.4 65.5909 374.16 64.8709 371.36V390.2ZM64.8709 365.84C64.8709 369.6 66.0109 372.6 68.2909 374.84C70.6109 377.04 73.6309 378.14 77.3509 378.14C85.7109 378.14 89.8909 373.84 89.8909 365.24C89.8909 356.68 85.7709 352.4 77.5309 352.4C73.6109 352.4 70.5109 353.54 68.2309 355.82C65.9909 358.1 64.8709 361.24 64.8709 365.24V365.84ZM100.965 380H98.2647V350.54H100.605V358.58H100.845C101.325 356.1 102.465 354.04 104.265 352.4C106.065 350.76 108.445 349.94 111.405 349.94C114.645 349.94 117.105 350.98 118.785 353.06C120.505 355.1 121.365 357.58 121.365 360.5V362.72H118.725V360.74C118.725 357.86 118.085 355.74 116.805 354.38C115.525 352.98 113.485 352.28 110.685 352.28C104.205 352.28 100.965 356.3 100.965 364.34V380ZM134.661 380.6C131.781 380.6 129.461 379.94 127.701 378.62C125.941 377.3 125.061 375.5 125.061 373.22C125.061 368.98 128.221 366.5 134.541 365.78L149.121 364.1V361.46C149.121 358.22 148.341 355.9 146.781 354.5C145.261 353.06 142.761 352.34 139.281 352.34C132.041 352.34 128.421 355.16 128.421 360.8V361.1H125.781V360.8C125.781 357.76 126.981 355.2 129.381 353.12C131.821 351 135.161 349.94 139.401 349.94C143.481 349.94 146.541 351 148.581 353.12C150.621 355.2 151.641 357.88 151.641 361.16V380H149.301V371.66H149.121C148.161 374.5 146.401 376.7 143.841 378.26C141.281 379.82 138.221 380.6 134.661 380.6ZM127.701 373.04C127.701 376.6 130.161 378.38 135.081 378.38C139.081 378.38 142.421 377.38 145.101 375.38C147.781 373.34 149.121 370.42 149.121 366.62V366.08L135.501 367.64C132.741 367.92 130.741 368.46 129.501 369.26C128.301 370.02 127.701 371.28 127.701 373.04ZM162.078 380H159.378V350.54H161.718V359.84H161.958C162.558 357.12 163.978 354.8 166.218 352.88C168.458 350.92 171.278 349.94 174.678 349.94C178.678 349.94 181.778 351.2 183.978 353.72C186.178 356.24 187.278 359.4 187.278 363.2V380H184.578V363.02C184.578 359.62 183.718 357 181.998 355.16C180.278 353.28 177.658 352.34 174.138 352.34C170.298 352.34 167.318 353.54 165.198 355.94C163.118 358.34 162.078 361.66 162.078 365.9V380ZM208.563 380.6C204.043 380.6 200.363 379.16 197.523 376.28C194.723 373.4 193.323 369.72 193.323 365.24C193.323 360.8 194.723 357.14 197.523 354.26C200.363 351.38 204.043 349.94 208.563 349.94C212.523 349.94 215.883 351.04 218.643 353.24C221.443 355.44 222.843 358.24 222.843 361.64V362H220.203V361.7C220.203 358.78 219.183 356.5 217.143 354.86C215.103 353.18 212.243 352.34 208.563 352.34C204.283 352.34 201.103 353.48 199.023 355.76C196.983 358 195.963 361.16 195.963 365.24C195.963 369.32 196.983 372.5 199.023 374.78C201.103 377.02 204.283 378.14 208.563 378.14C212.243 378.14 215.103 377.32 217.143 375.68C219.183 374.04 220.203 371.76 220.203 368.84V368.48H222.843V368.84C222.843 372.24 221.443 375.06 218.643 377.3C215.883 379.5 212.523 380.6 208.563 380.6ZM242.723 380.6C238.083 380.6 234.383 379.18 231.623 376.34C228.863 373.46 227.483 369.76 227.483 365.24C227.483 360.76 228.863 357.1 231.623 354.26C234.383 351.38 238.083 349.94 242.723 349.94C246.923 349.94 250.343 351.14 252.983 353.54C255.663 355.94 257.003 359.26 257.003 363.5C257.003 364.58 256.903 365.48 256.703 366.2H230.063C230.183 370 231.283 372.96 233.363 375.08C235.443 377.2 238.543 378.26 242.663 378.26C246.383 378.26 249.183 377.58 251.063 376.22C252.983 374.86 253.943 372.92 253.943 370.4V370.04H256.583V370.4C256.583 373.4 255.263 375.86 252.623 377.78C249.983 379.66 246.683 380.6 242.723 380.6ZM242.663 352.22C238.543 352.22 235.443 353.28 233.363 355.4C231.283 357.52 230.183 360.48 230.063 364.28H254.483C254.523 363.96 254.543 363.5 254.543 362.9C254.543 359.46 253.503 356.82 251.423 354.98C249.343 353.14 246.423 352.22 242.663 352.22ZM265.965 380H263.265V350.54H265.605V359.84H265.845C266.445 357.12 267.865 354.8 270.105 352.88C272.345 350.92 275.165 349.94 278.565 349.94C282.565 349.94 285.665 351.2 287.865 353.72C290.065 356.24 291.165 359.4 291.165 363.2V380H288.465V363.02C288.465 359.62 287.605 357 285.885 355.16C284.165 353.28 281.545 352.34 278.025 352.34C274.185 352.34 271.205 353.54 269.085 355.94C267.005 358.34 265.965 361.66 265.965 365.9V380ZM312.45 380.6C307.81 380.6 304.11 379.18 301.35 376.34C298.59 373.46 297.21 369.76 297.21 365.24C297.21 360.76 298.59 357.1 301.35 354.26C304.11 351.38 307.81 349.94 312.45 349.94C316.65 349.94 320.07 351.14 322.71 353.54C325.39 355.94 326.73 359.26 326.73 363.5C326.73 364.58 326.63 365.48 326.43 366.2H299.79C299.91 370 301.01 372.96 303.09 375.08C305.17 377.2 308.27 378.26 312.39 378.26C316.11 378.26 318.91 377.58 320.79 376.22C322.71 374.86 323.67 372.92 323.67 370.4V370.04H326.31V370.4C326.31 373.4 324.99 375.86 322.35 377.78C319.71 379.66 316.41 380.6 312.45 380.6ZM312.39 352.22C308.27 352.22 305.17 353.28 303.09 355.4C301.01 357.52 299.91 360.48 299.79 364.28H324.21C324.25 363.96 324.27 363.5 324.27 362.9C324.27 359.46 323.23 356.82 321.15 354.98C319.07 353.14 316.15 352.22 312.39 352.22ZM335.691 380H332.991V339.8H335.691V380ZM357.157 380.6C352.517 380.6 348.817 379.18 346.057 376.34C343.297 373.46 341.917 369.76 341.917 365.24C341.917 360.76 343.297 357.1 346.057 354.26C348.817 351.38 352.517 349.94 357.157 349.94C361.357 349.94 364.777 351.14 367.417 353.54C370.097 355.94 371.437 359.26 371.437 363.5C371.437 364.58 371.337 365.48 371.137 366.2H344.497C344.617 370 345.717 372.96 347.797 375.08C349.877 377.2 352.977 378.26 357.097 378.26C360.817 378.26 363.617 377.58 365.497 376.22C367.417 374.86 368.377 372.92 368.377 370.4V370.04H371.017V370.4C371.017 373.4 369.697 375.86 367.057 377.78C364.417 379.66 361.117 380.6 357.157 380.6ZM357.097 352.22C352.977 352.22 349.877 353.28 347.797 355.4C345.717 357.52 344.617 360.48 344.497 364.28H368.917C368.957 363.96 368.977 363.5 368.977 362.9C368.977 359.46 367.937 356.82 365.857 354.98C363.777 353.14 360.857 352.22 357.097 352.22Z" fill="white"/>
</g>
<g id="merita" filter="url(#filter6_d_453_22)">
<path d="M41.9 770.75C36.25 770.75 31.65 768.95 28.1 765.35C24.6 761.75 22.85 757.15 22.85 751.55C22.85 746 24.6 741.425 28.1 737.825C31.65 734.225 36.25 732.425 41.9 732.425C46.85 732.425 51.05 733.8 54.5 736.55C58 739.3 59.75 742.8 59.75 747.05V747.5H56.45V747.125C56.45 743.475 55.175 740.625 52.625 738.575C50.075 736.475 46.5 735.425 41.9 735.425C36.55 735.425 32.575 736.85 29.975 739.7C27.425 742.5 26.15 746.45 26.15 751.55C26.15 756.65 27.425 760.625 29.975 763.475C32.575 766.275 36.55 767.675 41.9 767.675C46.5 767.675 50.075 766.65 52.625 764.6C55.175 762.55 56.45 759.7 56.45 756.05V755.6H59.75V756.05C59.75 760.3 58 763.825 54.5 766.625C51.05 769.375 46.85 770.75 41.9 770.75ZM85.2752 770.75C79.3752 770.75 74.6002 768.95 70.9502 765.35C67.3502 761.75 65.5502 757.15 65.5502 751.55C65.5502 746 67.3502 741.425 70.9502 737.825C74.6002 734.225 79.3752 732.425 85.2752 732.425C91.1252 732.425 95.8752 734.225 99.5252 737.825C103.175 741.425 105 746 105 751.55C105 757.1 103.175 761.7 99.5252 765.35C95.8752 768.95 91.1252 770.75 85.2752 770.75ZM72.9752 763.475C75.7752 766.325 79.8752 767.75 85.2752 767.75C90.6752 767.75 94.7502 766.325 97.5002 763.475C100.3 760.575 101.7 756.6 101.7 751.55C101.7 746.55 100.3 742.625 97.5002 739.775C94.7502 736.875 90.6752 735.425 85.2752 735.425C79.8752 735.425 75.7752 736.875 72.9752 739.775C70.2252 742.625 68.8502 746.55 68.8502 751.55C68.8502 756.6 70.2252 760.575 72.9752 763.475ZM116.142 770H112.767V733.175H115.692V744.8H115.992C116.742 741.4 118.517 738.5 121.317 736.1C124.117 733.65 127.642 732.425 131.892 732.425C136.892 732.425 140.767 734 143.517 737.15C146.267 740.3 147.642 744.25 147.642 749V770H144.267V748.775C144.267 744.525 143.192 741.25 141.042 738.95C138.892 736.6 135.617 735.425 131.217 735.425C126.417 735.425 122.692 736.925 120.042 739.925C117.442 742.925 116.142 747.075 116.142 752.375V770ZM178.749 770H171.174C167.524 770 164.724 769.15 162.774 767.45C160.824 765.75 159.849 762.875 159.849 758.825V736.1H153.024V733.175H159.849V723.725H163.224V733.175H178.749V736.1H163.224V759.65C163.224 762.4 163.924 764.3 165.324 765.35C166.724 766.4 168.949 766.925 171.999 766.925H178.749V770ZM200.729 770.75C195.729 770.75 191.854 769.175 189.104 766.025C186.404 762.875 185.054 758.925 185.054 754.175V733.175H188.354V754.4C188.354 763.25 192.729 767.675 201.479 767.675C206.279 767.675 210.004 766.2 212.654 763.25C215.304 760.25 216.629 756.075 216.629 750.725V733.175H219.929V770H217.004V758.375H216.779C216.029 761.825 214.229 764.75 211.379 767.15C208.579 769.55 205.029 770.75 200.729 770.75ZM233.183 770H229.808V733.175H232.733V743.225H233.033C233.633 740.125 235.058 737.55 237.308 735.5C239.558 733.45 242.533 732.425 246.233 732.425C250.283 732.425 253.358 733.725 255.458 736.325C257.608 738.875 258.683 741.975 258.683 745.625V748.4H255.383V745.925C255.383 742.325 254.583 739.675 252.983 737.975C251.383 736.225 248.833 735.35 245.333 735.35C237.233 735.35 233.183 740.375 233.183 750.425V770ZM275.304 770.75C271.704 770.75 268.804 769.925 266.604 768.275C264.404 766.625 263.304 764.375 263.304 761.525C263.304 756.225 267.254 753.125 275.154 752.225L293.379 750.125V746.825C293.379 742.775 292.404 739.875 290.454 738.125C288.554 736.325 285.429 735.425 281.079 735.425C272.029 735.425 267.504 738.95 267.504 746V746.375H264.204V746C264.204 742.2 265.704 739 268.704 736.4C271.754 733.75 275.929 732.425 281.229 732.425C286.329 732.425 290.154 733.75 292.704 736.4C295.254 739 296.529 742.35 296.529 746.45V770H293.604V759.575H293.379C292.179 763.125 289.979 765.875 286.779 767.825C283.579 769.775 279.754 770.75 275.304 770.75ZM266.604 761.3C266.604 765.75 269.679 767.975 275.829 767.975C280.829 767.975 285.004 766.725 288.354 764.225C291.704 761.675 293.379 758.025 293.379 753.275V752.6L276.354 754.55C272.904 754.9 270.404 755.575 268.854 756.575C267.354 757.525 266.604 759.1 266.604 761.3ZM327.65 770H320.075C316.425 770 313.625 769.15 311.675 767.45C309.725 765.75 308.75 762.875 308.75 758.825V736.1H301.925V733.175H308.75V723.725H312.125V733.175H327.65V736.1H312.125V759.65C312.125 762.4 312.825 764.3 314.225 765.35C315.625 766.4 317.85 766.925 320.9 766.925H327.65V770ZM351.055 770.75C345.255 770.75 340.63 768.975 337.18 765.425C333.73 761.825 332.005 757.2 332.005 751.55C332.005 745.95 333.73 741.375 337.18 737.825C340.63 734.225 345.255 732.425 351.055 732.425C356.305 732.425 360.58 733.925 363.88 736.925C367.23 739.925 368.905 744.075 368.905 749.375C368.905 750.725 368.78 751.85 368.53 752.75H335.23C335.38 757.5 336.755 761.2 339.355 763.85C341.955 766.5 345.83 767.825 350.98 767.825C355.63 767.825 359.13 766.975 361.48 765.275C363.88 763.575 365.08 761.15 365.08 758V757.55H368.38V758C368.38 761.75 366.73 764.825 363.43 767.225C360.13 769.575 356.005 770.75 351.055 770.75ZM350.98 735.275C345.83 735.275 341.955 736.6 339.355 739.25C336.755 741.9 335.38 745.6 335.23 750.35H365.755C365.805 749.95 365.83 749.375 365.83 748.625C365.83 744.325 364.53 741.025 361.93 738.725C359.33 736.425 355.68 735.275 350.98 735.275ZM378.232 753.5H375.457C375.457 750.25 375.357 745.1 375.157 738.05C374.957 731 374.857 726.65 374.857 725V719.75H378.832V725C378.832 726.65 378.732 731 378.532 738.05C378.332 745.1 378.232 750.25 378.232 753.5ZM378.757 770H375.007V760.625H378.757V770Z" fill="white"/>
</g>
<g id="Buzele" filter="url(#filter7_d_453_22)">
<path d="M106.92 240H79.56V186.4H106.36C111 186.4 114.76 187.6 117.64 190C120.52 192.347 121.96 195.6 121.96 199.76C121.96 202.853 121.08 205.467 119.32 207.6C117.56 209.68 115.027 211.04 111.72 211.68V212C115.507 212.8 118.413 214.373 120.44 216.72C122.467 219.013 123.48 221.867 123.48 225.28C123.48 229.867 121.933 233.467 118.84 236.08C115.8 238.693 111.827 240 106.92 240ZM83.08 189.68V210.48H105.48C114.12 210.48 118.44 207.013 118.44 200.08C118.44 193.147 114.36 189.68 106.2 189.68H83.08ZM83.08 213.68V236.72H106.76C115.507 236.72 119.88 232.827 119.88 225.04C119.88 217.467 115.507 213.68 106.76 213.68H83.08ZM147.543 240.8C142.21 240.8 138.076 239.12 135.143 235.76C132.263 232.4 130.823 228.187 130.823 223.12V200.72H134.343V223.36C134.343 232.8 139.01 237.52 148.343 237.52C153.463 237.52 157.436 235.947 160.263 232.8C163.09 229.6 164.503 225.147 164.503 219.44V200.72H168.023V240H164.903V227.6H164.663C163.863 231.28 161.943 234.4 158.903 236.96C155.916 239.52 152.13 240.8 147.543 240.8ZM214.721 240H175.601V236.8L200.321 212.16L208.641 204.16V203.84L200.321 203.92H176.801V200.72H213.521V203.92L187.201 229.92L180.241 236.56V236.88L187.201 236.8H214.721V240ZM240.391 240.8C234.205 240.8 229.271 238.907 225.591 235.12C221.911 231.28 220.071 226.347 220.071 220.32C220.071 214.347 221.911 209.467 225.591 205.68C229.271 201.84 234.205 199.92 240.391 199.92C245.991 199.92 250.551 201.52 254.071 204.72C257.645 207.92 259.431 212.347 259.431 218C259.431 219.44 259.298 220.64 259.031 221.6H223.511C223.671 226.667 225.138 230.613 227.911 233.44C230.685 236.267 234.818 237.68 240.311 237.68C245.271 237.68 249.005 236.773 251.511 234.96C254.071 233.147 255.351 230.56 255.351 227.2V226.72H258.871V227.2C258.871 231.2 257.111 234.48 253.591 237.04C250.071 239.547 245.671 240.8 240.391 240.8ZM240.311 202.96C234.818 202.96 230.685 204.373 227.911 207.2C225.138 210.027 223.671 213.973 223.511 219.04H256.071C256.125 218.613 256.151 218 256.151 217.2C256.151 212.613 254.765 209.093 251.991 206.64C249.218 204.187 245.325 202.96 240.311 202.96ZM271.38 240H267.78V186.4H271.38V240ZM300.001 240.8C293.814 240.8 288.881 238.907 285.201 235.12C281.521 231.28 279.681 226.347 279.681 220.32C279.681 214.347 281.521 209.467 285.201 205.68C288.881 201.84 293.814 199.92 300.001 199.92C305.601 199.92 310.161 201.52 313.681 204.72C317.254 207.92 319.041 212.347 319.041 218C319.041 219.44 318.907 220.64 318.641 221.6H283.121C283.281 226.667 284.747 230.613 287.521 233.44C290.294 236.267 294.427 237.68 299.921 237.68C304.881 237.68 308.614 236.773 311.121 234.96C313.681 233.147 314.961 230.56 314.961 227.2V226.72H318.481V227.2C318.481 231.2 316.721 234.48 313.201 237.04C309.681 239.547 305.281 240.8 300.001 240.8ZM299.921 202.96C294.427 202.96 290.294 204.373 287.521 207.2C284.747 210.027 283.281 213.973 283.121 219.04H315.681C315.734 218.613 315.761 218 315.761 217.2C315.761 212.613 314.374 209.093 311.601 206.64C308.827 204.187 304.934 202.96 299.921 202.96Z" fill="white"/>
</g>
<g id="merita_2" filter="url(#filter8_d_453_22)">
<path d="M70.88 673H67.28V633.72H70.4V645.48H70.64C71.2267 641.853 72.8267 638.867 75.44 636.52C78.1067 634.12 81.7333 632.92 86.32 632.92C90.5333 632.92 93.92 634.093 96.48 636.44C99.0933 638.787 100.747 641.987 101.44 646.04H101.76C102.4 642.307 104.053 639.187 106.72 636.68C109.387 634.173 113.013 632.92 117.6 632.92C122.613 632.92 126.48 634.547 129.2 637.8C131.973 641.053 133.36 645.32 133.36 650.6V673H129.84V650.36C129.84 640.867 125.493 636.12 116.8 636.12C106.987 636.12 102.08 642.147 102.08 654.2V673H98.56V650.36C98.56 640.867 94.24 636.12 85.6 636.12C80.5333 636.12 76.8 637.64 74.4 640.68C72.0533 643.72 70.88 648.227 70.88 654.2V673ZM161.844 673.8C155.658 673.8 150.724 671.907 147.044 668.12C143.364 664.28 141.524 659.347 141.524 653.32C141.524 647.347 143.364 642.467 147.044 638.68C150.724 634.84 155.658 632.92 161.844 632.92C167.444 632.92 172.004 634.52 175.524 637.72C179.098 640.92 180.884 645.347 180.884 651C180.884 652.44 180.751 653.64 180.484 654.6H144.964C145.124 659.667 146.591 663.613 149.364 666.44C152.138 669.267 156.271 670.68 161.764 670.68C166.724 670.68 170.458 669.773 172.964 667.96C175.524 666.147 176.804 663.56 176.804 660.2V659.72H180.324V660.2C180.324 664.2 178.564 667.48 175.044 670.04C171.524 672.547 167.124 673.8 161.844 673.8ZM161.764 635.96C156.271 635.96 152.138 637.373 149.364 640.2C146.591 643.027 145.124 646.973 144.964 652.04H177.524C177.578 651.613 177.604 651 177.604 650.2C177.604 645.613 176.218 642.093 173.444 639.64C170.671 637.187 166.778 635.96 161.764 635.96ZM192.833 673H189.233V633.72H192.353V644.44H192.673C193.313 641.133 194.833 638.387 197.233 636.2C199.633 634.013 202.806 632.92 206.753 632.92C211.073 632.92 214.353 634.307 216.593 637.08C218.886 639.8 220.033 643.107 220.033 647V649.96H216.513V647.32C216.513 643.48 215.66 640.653 213.953 638.84C212.246 636.973 209.526 636.04 205.793 636.04C197.153 636.04 192.833 641.4 192.833 652.12V673ZM230.802 628.28H227.202V619.4H230.802V628.28ZM230.802 673H227.202V633.72H230.802V673ZM264.223 673H256.143C252.249 673 249.263 672.093 247.183 670.28C245.103 668.467 244.063 665.4 244.063 661.08V636.84H236.783V633.72H244.063V623.64H247.663V633.72H264.223V636.84H247.663V661.96C247.663 664.893 248.409 666.92 249.903 668.04C251.396 669.16 253.769 669.72 257.023 669.72H264.223V673ZM295.028 626.76C293.268 628.253 290.948 629 288.068 629C285.188 629 282.868 628.253 281.108 626.76C279.348 625.267 278.468 623.213 278.468 620.6V618.52H281.428V620.68C281.428 624.467 283.641 626.36 288.068 626.36C290.415 626.36 292.095 625.907 293.108 625C294.175 624.04 294.708 622.6 294.708 620.68V618.52H297.668V620.6C297.668 623.213 296.788 625.267 295.028 626.76ZM281.668 673.8C277.828 673.8 274.735 672.92 272.388 671.16C270.041 669.4 268.868 667 268.868 663.96C268.868 658.307 273.081 655 281.508 654.04L300.948 651.8V648.28C300.948 643.96 299.908 640.867 297.828 639C295.801 637.08 292.468 636.12 287.828 636.12C278.175 636.12 273.348 639.88 273.348 647.4V647.8H269.828V647.4C269.828 643.347 271.428 639.933 274.628 637.16C277.881 634.333 282.335 632.92 287.988 632.92C293.428 632.92 297.508 634.333 300.228 637.16C302.948 639.933 304.308 643.507 304.308 647.88V673H301.188V661.88H300.948C299.668 665.667 297.321 668.6 293.908 670.68C290.495 672.76 286.415 673.8 281.668 673.8ZM272.388 663.72C272.388 668.467 275.668 670.84 282.228 670.84C287.561 670.84 292.015 669.507 295.588 666.84C299.161 664.12 300.948 660.227 300.948 655.16V654.44L282.788 656.52C279.108 656.893 276.441 657.613 274.788 658.68C273.188 659.693 272.388 661.373 272.388 663.72Z" fill="white"/>
</g>
<g id="zc5" filter="url(#filter9_f_453_22)">
<circle cx="341.5" cy="437.5" r="40.5" fill="url(#paint4_linear_453_22)"/>
</g>
<g id="zc6" filter="url(#filter10_f_453_22)">
<circle cx="68.3021" cy="162.302" r="47.1991" transform="rotate(-176.098 68.3021 162.302)" fill="url(#paint5_linear_453_22)"/>
</g>
<g id="zc7" filter="url(#filter11_f_453_22)">
<circle cx="327.5" cy="810.5" r="40.5" fill="url(#paint6_linear_453_22)"/>
</g>
<g id="si" filter="url(#filter12_d_453_22)">
<path d="M190.04 315.7C184.86 315.7 180.847 314.673 178 312.62C175.153 310.567 173.73 307.58 173.73 303.66V303.52H176.81V303.87C176.81 307.183 177.837 309.54 179.89 310.94C181.943 312.293 185.327 312.97 190.04 312.97C194.24 312.97 197.227 312.433 199 311.36C200.773 310.287 201.66 308.583 201.66 306.25C201.66 304.197 201.007 302.703 199.7 301.77C198.393 300.837 196.107 300.113 192.84 299.6L183.81 298.27C180.543 297.757 178.047 296.823 176.32 295.47C174.593 294.117 173.73 292.11 173.73 289.45C173.73 286.463 175.06 284.13 177.72 282.45C180.427 280.77 183.997 279.93 188.43 279.93C193.237 279.93 197.063 280.98 199.91 283.08C202.803 285.133 204.25 288.097 204.25 291.97V292.11H201.17V291.76C201.17 288.68 200.19 286.393 198.23 284.9C196.27 283.36 192.98 282.59 188.36 282.59C184.347 282.59 181.407 283.127 179.54 284.2C177.72 285.273 176.81 287.023 176.81 289.45C176.81 291.457 177.393 292.927 178.56 293.86C179.773 294.747 181.943 295.423 185.07 295.89L193.82 297.22C197.367 297.733 200.073 298.69 201.94 300.09C203.807 301.443 204.74 303.45 204.74 306.11C204.74 309.237 203.387 311.617 200.68 313.25C197.973 314.883 194.427 315.7 190.04 315.7ZM184.79 329H182.2L187.87 319.9H191.37L184.79 329ZM215.137 275.87H211.987V268.1H215.137V275.87ZM215.137 315H211.987V280.63H215.137V315Z" fill="white"/>
</g>
<g id="zc8" filter="url(#filter13_f_453_22)">
<circle cx="67.5063" cy="500.506" r="43.459" transform="rotate(30.5107 67.5063 500.506)" fill="url(#paint7_linear_453_22)" fill-opacity="0.98"/>
</g>
</g>
<defs>
<filter id="filter0_f_453_22" x="271.275" y="44.8887" width="123.039" height="123.038" filterUnits="userSpaceOnUse" color-interpolation-filters="sRGB">
<feFlood flood-opacity="0" result="BackgroundImageFix"/>
<feBlend mode="normal" in="SourceGraphic" in2="BackgroundImageFix" result="shape"/>
<feGaussianBlur stdDeviation="4" result="effect1_foregroundBlur_453_22"/>
</filter>
<filter id="filter1_f_453_22" x="258.941" y="547.941" width="56.2656" height="56.2656" filterUnits="userSpaceOnUse" color-interpolation-filters="sRGB">
<feFlood flood-opacity="0" result="BackgroundImageFix"/>
<feBlend mode="normal" in="SourceGraphic" in2="BackgroundImageFix" result="shape"/>
<feGaussianBlur stdDeviation="4" result="effect1_foregroundBlur_453_22"/>
</filter>
<filter id="filter2_f_453_22" x="97.9414" y="258.941" width="56.2656" height="56.2656" filterUnits="userSpaceOnUse" color-interpolation-filters="sRGB">
<feFlood flood-opacity="0" result="BackgroundImageFix"/>
<feBlend mode="normal" in="SourceGraphic" in2="BackgroundImageFix" result="shape"/>
<feGaussianBlur stdDeviation="4" result="effect1_foregroundBlur_453_22"/>
</filter>
<filter id="filter3_f_453_22" x="54.9551" y="716.957" width="90.2617" height="90.2598" filterUnits="userSpaceOnUse" color-interpolation-filters="sRGB">
<feFlood flood-opacity="0" result="BackgroundImageFix"/>
<feBlend mode="normal" in="SourceGraphic" in2="BackgroundImageFix" result="shape"/>
<feGaussianBlur stdDeviation="4" result="effect1_foregroundBlur_453_22"/>
</filter>
<filter id="filter4_d_453_22" x="104.321" y="462" width="175.501" height="79.1994" filterUnits="userSpaceOnUse" color-interpolation-filters="sRGB">
<feFlood flood-opacity="0" result="BackgroundImageFix"/>
<feColorMatrix in="SourceAlpha" type="matrix" values="0 0 0 0 0 0 0 0 0 0 0 0 0 0 0 0 0 0 127 0" result="hardAlpha"/>
<feOffset/>
<feGaussianBlur stdDeviation="5.7"/>
<feComposite in2="hardAlpha" operator="out"/>
<feColorMatrix type="matrix" values="0 0 0 0 0.896078 0 0 0 0 0.805882 0 0 0 0 0.409804 0 0 0 0.8 0"/>
<feBlend mode="normal" in2="BackgroundImageFix" result="effect1_dropShadow_453_22"/>
<feBlend mode="normal" in="SourceGraphic" in2="effect1_dropShadow_453_22" result="shape"/>
</filter>
<filter id="filter5_d_453_22" x="5.91992" y="330.2" width="379.518" height="83" filterUnits="userSpaceOnUse" color-interpolation-filters="sRGB">
<feFlood flood-opacity="0" result="BackgroundImageFix"/>
<feColorMatrix in="SourceAlpha" type="matrix" values="0 0 0 0 0 0 0 0 0 0 0 0 0 0 0 0 0 0 127 0" result="hardAlpha"/>
<feOffset dx="-2" dy="7"/>
<feGaussianBlur stdDeviation="8"/>
<feComposite in2="hardAlpha" operator="out"/>
<feColorMatrix type="matrix" values="0 0 0 0 0 0 0 0 0 0 0 0 0 0 0 0 0 0 0.65 0"/>
<feBlend mode="normal" in2="BackgroundImageFix" result="effect1_dropShadow_453_22"/>
<feBlend mode="normal" in="SourceGraphic" in2="effect1_dropShadow_453_22" result="shape"/>
</filter>
<filter id="filter6_d_453_22" x="4.84961" y="710.75" width="387.982" height="83" filterUnits="userSpaceOnUse" color-interpolation-filters="sRGB">
<feFlood flood-opacity="0" result="BackgroundImageFix"/>
<feColorMatrix in="SourceAlpha" type="matrix" values="0 0 0 0 0 0 0 0 0 0 0 0 0 0 0 0 0 0 127 0" result="hardAlpha"/>
<feOffset dx="-2" dy="7"/>
<feGaussianBlur stdDeviation="8"/>
<feComposite in2="hardAlpha" operator="out"/>
<feColorMatrix type="matrix" values="0 0 0 0 0 0 0 0 0 0 0 0 0 0 0 0 0 0 0.65 0"/>
<feBlend mode="normal" in2="BackgroundImageFix" result="effect1_dropShadow_453_22"/>
<feBlend mode="normal" in="SourceGraphic" in2="effect1_dropShadow_453_22" result="shape"/>
</filter>
<filter id="filter7_d_453_22" x="61.5605" y="177.4" width="271.48" height="86.3994" filterUnits="userSpaceOnUse" color-interpolation-filters="sRGB">
<feFlood flood-opacity="0" result="BackgroundImageFix"/>
<feColorMatrix in="SourceAlpha" type="matrix" values="0 0 0 0 0 0 0 0 0 0 0 0 0 0 0 0 0 0 127 0" result="hardAlpha"/>
<feOffset dx="-2" dy="7"/>
<feGaussianBlur stdDeviation="8"/>
<feComposite in2="hardAlpha" operator="out"/>
<feColorMatrix type="matrix" values="0 0 0 0 0 0 0 0 0 0 0 0 0 0 0 0 0 0 0.65 0"/>
<feBlend mode="normal" in2="BackgroundImageFix" result="effect1_dropShadow_453_22"/>
<feBlend mode="normal" in="SourceGraphic" in2="effect1_dropShadow_453_22" result="shape"/>
</filter>
<filter id="filter8_d_453_22" x="49.2793" y="609.52" width="269.029" height="87.2803" filterUnits="userSpaceOnUse" color-interpolation-filters="sRGB">
<feFlood flood-opacity="0" result="BackgroundImageFix"/>
<feColorMatrix in="SourceAlpha" type="matrix" values="0 0 0 0 0 0 0 0 0 0 0 0 0 0 0 0 0 0 127 0" result="hardAlpha"/>
<feOffset dx="-2" dy="7"/>
<feGaussianBlur stdDeviation="8"/>
<feComposite in2="hardAlpha" operator="out"/>
<feColorMatrix type="matrix" values="0 0 0 0 0 0 0 0 0 0 0 0 0 0 0 0 0 0 0.65 0"/>
<feBlend mode="normal" in2="BackgroundImageFix" result="effect1_dropShadow_453_22"/>
<feBlend mode="normal" in="SourceGraphic" in2="effect1_dropShadow_453_22" result="shape"/>
</filter>
<filter id="filter9_f_453_22" x="278" y="374" width="127" height="127" filterUnits="userSpaceOnUse" color-interpolation-filters="sRGB">
<feFlood flood-opacity="0" result="BackgroundImageFix"/>
<feBlend mode="normal" in="SourceGraphic" in2="BackgroundImageFix" result="shape"/>
<feGaussianBlur stdDeviation="11.5" result="effect1_foregroundBlur_453_22"/>
</filter>
<filter id="filter10_f_453_22" x="2.10156" y="96.1006" width="132.402" height="132.402" filterUnits="userSpaceOnUse" color-interpolation-filters="sRGB">
<feFlood flood-opacity="0" result="BackgroundImageFix"/>
<feBlend mode="normal" in="SourceGraphic" in2="BackgroundImageFix" result="shape"/>
<feGaussianBlur stdDeviation="9.5" result="effect1_foregroundBlur_453_22"/>
</filter>
<filter id="filter11_f_453_22" x="264" y="747" width="127" height="127" filterUnits="userSpaceOnUse" color-interpolation-filters="sRGB">
<feFlood flood-opacity="0" result="BackgroundImageFix"/>
<feBlend mode="normal" in="SourceGraphic" in2="BackgroundImageFix" result="shape"/>
<feGaussianBlur stdDeviation="11.5" result="effect1_foregroundBlur_453_22"/>
</filter>
<filter id="filter12_d_453_22" x="155.73" y="259.1" width="73.4062" height="92.9004" filterUnits="userSpaceOnUse" color-interpolation-filters="sRGB">
<feFlood flood-opacity="0" result="BackgroundImageFix"/>
<feColorMatrix in="SourceAlpha" type="matrix" values="0 0 0 0 0 0 0 0 0 0 0 0 0 0 0 0 0 0 127 0" result="hardAlpha"/>
<feOffset dx="-2" dy="7"/>
<feGaussianBlur stdDeviation="8"/>
<feComposite in2="hardAlpha" operator="out"/>
<feColorMatrix type="matrix" values="0 0 0 0 0 0 0 0 0 0 0 0 0 0 0 0 0 0 0.65 0"/>
<feBlend mode="normal" in2="BackgroundImageFix" result="effect1_dropShadow_453_22"/>
<feBlend mode="normal" in="SourceGraphic" in2="effect1_dropShadow_453_22" result="shape"/>
</filter>
<filter id="filter13_f_453_22" x="-7.65899" y="425.34" width="150.332" height="150.332" filterUnits="userSpaceOnUse" color-interpolation-filters="sRGB">
<feFlood flood-opacity="0" result="BackgroundImageFix"/>
<feBlend mode="normal" in="SourceGraphic" in2="BackgroundImageFix" result="shape"/>
<feGaussianBlur stdDeviation="15.85" result="effect1_foregroundBlur_453_22"/>
</filter>
<radialGradient id="paint0_radial_453_22" cx="0" cy="0" r="1" gradientUnits="userSpaceOnUse" gradientTransform="translate(308.345 132.604) rotate(2.68451) scale(63.3227)">
<stop offset="0.620192" stop-color="#EDC967"/>
<stop offset="1" stop-color="#AC8B3B"/>
</radialGradient>
<radialGradient id="paint1_radial_453_22" cx="0" cy="0" r="1" gradientUnits="userSpaceOnUse" gradientTransform="translate(277.877 585.929) rotate(2.68451) scale(23.8209)">
<stop offset="0.620192" stop-color="#EDC967"/>
<stop offset="1" stop-color="#AC8B3B"/>
</radialGradient>
<radialGradient id="paint2_radial_453_22" cx="0" cy="0" r="1" gradientUnits="userSpaceOnUse" gradientTransform="translate(116.877 296.929) rotate(2.68451) scale(23.8209)">
<stop offset="0.620192" stop-color="#EDC967"/>
<stop offset="1" stop-color="#AC8B3B"/>
</radialGradient>
<radialGradient id="paint3_radial_453_22" cx="0" cy="0" r="1" gradientUnits="userSpaceOnUse" gradientTransform="translate(83.123 780.261) rotate(2.68451) scale(43.9316)">
<stop offset="0.620192" stop-color="#EDC967"/>
<stop offset="1" stop-color="#AC8B3B"/>
</radialGradient>
<linearGradient id="paint4_linear_453_22" x1="314.135" y1="451.912" x2="370.872" y2="459.574" gradientUnits="userSpaceOnUse">
<stop offset="0.615385" stop-color="#EEDE79"/>
<stop offset="1" stop-color="#E5CE69"/>
</linearGradient>
<linearGradient id="paint5_linear_453_22" x1="36.4108" y1="179.098" x2="102.532" y2="188.027" gradientUnits="userSpaceOnUse">
<stop stop-color="#EEDE79"/>
<stop offset="1" stop-color="#AE8625"/>
</linearGradient>
<linearGradient id="paint6_linear_453_22" x1="300.135" y1="824.912" x2="356.872" y2="832.574" gradientUnits="userSpaceOnUse">
<stop offset="0.615385" stop-color="#D2AC47"/>
<stop offset="1" stop-color="#AE8625"/>
</linearGradient>
<linearGradient id="paint7_linear_453_22" x1="67.5063" y1="474.078" x2="62.808" y2="533.393" gradientUnits="userSpaceOnUse">
<stop offset="0.192308" stop-color="#CAAA5C"/>
<stop offset="0.581731" stop-color="#EEDE79"/>
</linearGradient>
<clipPath id="clip0_453_22">
<rect width="402" height="874" fill="white"/>
</clipPath>
</defs>
</svg>
