<svg width="1410" height="950" viewBox="0 0 1410 950" fill="none" xmlns="http://www.w3.org/2000/svg">
<g id="Group 1">
<g id="cerc7" filter="url(#filter0_f_255_38)">
<circle cx="474.5" cy="730.5" r="40.5" fill="url(#paint0_linear_255_38)"/>
</g>
<g id="cerc8" filter="url(#filter1_f_255_38)">
<ellipse cx="190" cy="114.5" rx="95" ry="95.5" fill="url(#paint1_linear_255_38)" fill-opacity="0.88"/>
</g>
<g id="cerc5" filter="url(#filter2_f_255_38)">
<circle cx="566.223" cy="369.223" r="145.5" transform="rotate(30.5107 566.223 369.223)" fill="url(#paint2_linear_255_38)" fill-opacity="0.98"/>
</g>
<g id="cerc3" filter="url(#filter3_f_255_38)">
<circle cx="894.5" cy="881.5" r="40.5" fill="url(#paint3_linear_255_38)"/>
</g>
<g id="cerc9" filter="url(#filter4_f_255_38)">
<circle cx="1191.3" cy="137.297" r="111" transform="rotate(-176.098 1191.3 137.297)" fill="url(#paint4_linear_255_38)"/>
</g>
<g id="merita" filter="url(#filter5_d_255_38)">
<path d="M633.99 483H629.94V438.81H633.45V452.04H633.72C634.38 447.96 636.18 444.6 639.12 441.96C642.12 439.26 646.2 437.91 651.36 437.91C656.1 437.91 659.91 439.23 662.79 441.87C665.73 444.51 667.59 448.11 668.37 452.67H668.73C669.45 448.47 671.31 444.96 674.31 442.14C677.31 439.32 681.39 437.91 686.55 437.91C692.19 437.91 696.54 439.74 699.6 443.4C702.72 447.06 704.28 451.86 704.28 457.8V483H700.32V457.53C700.32 446.85 695.43 441.51 685.65 441.51C674.61 441.51 669.09 448.29 669.09 461.85V483H665.13V457.53C665.13 446.85 660.27 441.51 650.55 441.51C644.85 441.51 640.65 443.22 637.95 446.64C635.31 450.06 633.99 455.13 633.99 461.85V483ZM736.325 483.9C729.365 483.9 723.815 481.77 719.675 477.51C715.535 473.19 713.465 467.64 713.465 460.86C713.465 454.14 715.535 448.65 719.675 444.39C723.815 440.07 729.365 437.91 736.325 437.91C742.625 437.91 747.755 439.71 751.715 443.31C755.735 446.91 757.745 451.89 757.745 458.25C757.745 459.87 757.595 461.22 757.295 462.3H717.335C717.515 468 719.165 472.44 722.285 475.62C725.405 478.8 730.055 480.39 736.235 480.39C741.815 480.39 746.015 479.37 748.835 477.33C751.715 475.29 753.155 472.38 753.155 468.6V468.06H757.115V468.6C757.115 473.1 755.135 476.79 751.175 479.67C747.215 482.49 742.265 483.9 736.325 483.9ZM736.235 441.33C730.055 441.33 725.405 442.92 722.285 446.1C719.165 449.28 717.515 453.72 717.335 459.42H753.965C754.025 458.94 754.055 458.25 754.055 457.35C754.055 452.19 752.495 448.23 749.375 445.47C746.255 442.71 741.875 441.33 736.235 441.33ZM771.187 483H767.137V438.81H770.647V450.87H771.007C771.727 447.15 773.437 444.06 776.137 441.6C778.837 439.14 782.407 437.91 786.847 437.91C791.707 437.91 795.397 439.47 797.917 442.59C800.497 445.65 801.787 449.37 801.787 453.75V457.08H797.827V454.11C797.827 449.79 796.867 446.61 794.947 444.57C793.027 442.47 789.967 441.42 785.767 441.42C776.047 441.42 771.187 447.45 771.187 459.51V483ZM813.902 432.69H809.852V422.7H813.902V432.69ZM813.902 483H809.852V438.81H813.902V483ZM851.5 483H842.41C838.03 483 834.67 481.98 832.33 479.94C829.99 477.9 828.82 474.45 828.82 469.59V442.32H820.63V438.81H828.82V427.47H832.87V438.81H851.5V442.32H832.87V470.58C832.87 473.88 833.71 476.16 835.39 477.42C837.07 478.68 839.74 479.31 843.4 479.31H851.5V483ZM886.157 430.98C884.177 432.66 881.567 433.5 878.327 433.5C875.087 433.5 872.477 432.66 870.497 430.98C868.517 429.3 867.527 426.99 867.527 424.05V421.71H870.857V424.14C870.857 428.4 873.347 430.53 878.327 430.53C880.967 430.53 882.857 430.02 883.997 429C885.197 427.92 885.797 426.3 885.797 424.14V421.71H889.127V424.05C889.127 426.99 888.137 429.3 886.157 430.98ZM871.127 483.9C866.807 483.9 863.327 482.91 860.687 480.93C858.047 478.95 856.727 476.25 856.727 472.83C856.727 466.47 861.467 462.75 870.947 461.67L892.817 459.15V455.19C892.817 450.33 891.647 446.85 889.307 444.75C887.027 442.59 883.277 441.51 878.057 441.51C867.197 441.51 861.767 445.74 861.767 454.2V454.65H857.807V454.2C857.807 449.64 859.607 445.8 863.207 442.68C866.867 439.5 871.877 437.91 878.237 437.91C884.357 437.91 888.947 439.5 892.007 442.68C895.067 445.8 896.597 449.82 896.597 454.74V483H893.087V470.49H892.817C891.377 474.75 888.737 478.05 884.897 480.39C881.057 482.73 876.467 483.9 871.127 483.9ZM860.687 472.56C860.687 477.9 864.377 480.57 871.757 480.57C877.757 480.57 882.767 479.07 886.787 476.07C890.807 473.01 892.817 468.63 892.817 462.93V462.12L872.387 464.46C868.247 464.88 865.247 465.69 863.387 466.89C861.587 468.03 860.687 469.92 860.687 472.56ZM929.83 483H925.78V438.81H929.29V450.87H929.65C930.37 447.15 932.08 444.06 934.78 441.6C937.48 439.14 941.05 437.91 945.49 437.91C950.35 437.91 954.04 439.47 956.56 442.59C959.14 445.65 960.43 449.37 960.43 453.75V457.08H956.47V454.11C956.47 449.79 955.51 446.61 953.59 444.57C951.67 442.47 948.61 441.42 944.41 441.42C934.69 441.42 929.83 447.45 929.83 459.51V483ZM980.375 483.9C976.055 483.9 972.575 482.91 969.935 480.93C967.295 478.95 965.975 476.25 965.975 472.83C965.975 466.47 970.715 462.75 980.195 461.67L1002.06 459.15V455.19C1002.06 450.33 1000.89 446.85 998.555 444.75C996.275 442.59 992.525 441.51 987.305 441.51C976.445 441.51 971.015 445.74 971.015 454.2V454.65H967.055V454.2C967.055 449.64 968.855 445.8 972.455 442.68C976.115 439.5 981.125 437.91 987.485 437.91C993.605 437.91 998.195 439.5 1001.25 442.68C1004.31 445.8 1005.84 449.82 1005.84 454.74V483H1002.33V470.49H1002.06C1000.62 474.75 997.985 478.05 994.145 480.39C990.305 482.73 985.715 483.9 980.375 483.9ZM969.935 472.56C969.935 477.9 973.625 480.57 981.005 480.57C987.005 480.57 992.015 479.07 996.035 476.07C1000.05 473.01 1002.06 468.63 1002.06 462.93V462.12L981.635 464.46C977.495 464.88 974.495 465.69 972.635 466.89C970.835 468.03 969.935 469.92 969.935 472.56ZM1024.56 483H1020.51V442.32H1013.22V438.81H1020.51C1020.81 433.41 1022.52 429.39 1025.64 426.75C1028.76 424.05 1033.08 422.7 1038.6 422.7H1043.73V426.12H1038.06C1033.5 426.12 1030.08 427.11 1027.8 429.09C1025.52 431.07 1024.44 434.31 1024.56 438.81H1043.73V442.32H1024.56V483ZM1054.53 432.69H1050.57V422.7H1054.53V432.69ZM1054.53 483H1050.57V438.81H1054.53V483ZM1070.54 483H1066.49V438.81H1070V452.76H1070.36C1071.26 448.68 1073.39 445.2 1076.75 442.32C1080.11 439.38 1084.34 437.91 1089.44 437.91C1095.44 437.91 1100.09 439.8 1103.39 443.58C1106.69 447.36 1108.34 452.1 1108.34 457.8V483H1104.29V457.53C1104.29 452.43 1103 448.5 1100.42 445.74C1097.84 442.92 1093.91 441.51 1088.63 441.51C1082.87 441.51 1078.4 443.31 1075.22 446.91C1072.1 450.51 1070.54 455.49 1070.54 461.85V483ZM1131.81 483.9C1127.49 483.9 1124.01 482.91 1121.37 480.93C1118.73 478.95 1117.41 476.25 1117.41 472.83C1117.41 466.47 1122.15 462.75 1131.63 461.67L1153.5 459.15V455.19C1153.5 450.33 1152.33 446.85 1149.99 444.75C1147.71 442.59 1143.96 441.51 1138.74 441.51C1127.88 441.51 1122.45 445.74 1122.45 454.2V454.65H1118.49V454.2C1118.49 449.64 1120.29 445.8 1123.89 442.68C1127.55 439.5 1132.56 437.91 1138.92 437.91C1145.04 437.91 1149.63 439.5 1152.69 442.68C1155.75 445.8 1157.28 449.82 1157.28 454.74V483H1153.77V470.49H1153.5C1152.06 474.75 1149.42 478.05 1145.58 480.39C1141.74 482.73 1137.15 483.9 1131.81 483.9ZM1121.37 472.56C1121.37 477.9 1125.06 480.57 1132.44 480.57C1138.44 480.57 1143.45 479.07 1147.47 476.07C1151.49 473.01 1153.5 468.63 1153.5 462.93V462.12L1133.07 464.46C1128.93 464.88 1125.93 465.69 1124.07 466.89C1122.27 468.03 1121.37 469.92 1121.37 472.56ZM1172.94 483H1168.89V438.81H1172.4V452.04H1172.67C1173.33 447.96 1175.13 444.6 1178.07 441.96C1181.07 439.26 1185.15 437.91 1190.31 437.91C1195.05 437.91 1198.86 439.23 1201.74 441.87C1204.68 444.51 1206.54 448.11 1207.32 452.67H1207.68C1208.4 448.47 1210.26 444.96 1213.26 442.14C1216.26 439.32 1220.34 437.91 1225.5 437.91C1231.14 437.91 1235.49 439.74 1238.55 443.4C1241.67 447.06 1243.23 451.86 1243.23 457.8V483H1239.27V457.53C1239.27 446.85 1234.38 441.51 1224.6 441.51C1213.56 441.51 1208.04 448.29 1208.04 461.85V483H1204.08V457.53C1204.08 446.85 1199.22 441.51 1189.5 441.51C1183.8 441.51 1179.6 443.22 1176.9 446.64C1174.26 450.06 1172.94 455.13 1172.94 461.85V483ZM1275.27 483.9C1268.31 483.9 1262.76 481.77 1258.62 477.51C1254.48 473.19 1252.41 467.64 1252.41 460.86C1252.41 454.14 1254.48 448.65 1258.62 444.39C1262.76 440.07 1268.31 437.91 1275.27 437.91C1281.57 437.91 1286.7 439.71 1290.66 443.31C1294.68 446.91 1296.69 451.89 1296.69 458.25C1296.69 459.87 1296.54 461.22 1296.24 462.3H1256.28C1256.46 468 1258.11 472.44 1261.23 475.62C1264.35 478.8 1269 480.39 1275.18 480.39C1280.76 480.39 1284.96 479.37 1287.78 477.33C1290.66 475.29 1292.1 472.38 1292.1 468.6V468.06H1296.06V468.6C1296.06 473.1 1294.08 476.79 1290.12 479.67C1286.16 482.49 1281.21 483.9 1275.27 483.9ZM1275.18 441.33C1269 441.33 1264.35 442.92 1261.23 446.1C1258.11 449.28 1256.46 453.72 1256.28 459.42H1292.91C1292.97 458.94 1293 458.25 1293 457.35C1293 452.19 1291.44 448.23 1288.32 445.47C1285.2 442.71 1280.82 441.33 1275.18 441.33ZM1310.13 483H1306.08V438.81H1309.59V452.76H1309.95C1310.85 448.68 1312.98 445.2 1316.34 442.32C1319.7 439.38 1323.93 437.91 1329.03 437.91C1335.03 437.91 1339.68 439.8 1342.98 443.58C1346.28 447.36 1347.93 452.1 1347.93 457.8V483H1343.88V457.53C1343.88 452.43 1342.59 448.5 1340.01 445.74C1337.43 442.92 1333.5 441.51 1328.22 441.51C1322.46 441.51 1317.99 443.31 1314.81 446.91C1311.69 450.51 1310.13 455.49 1310.13 461.85V483ZM1385.26 483H1376.17C1371.79 483 1368.43 481.98 1366.09 479.94C1363.75 477.9 1362.58 474.45 1362.58 469.59V442.32H1354.39V438.81H1362.58V427.47H1366.63V438.81H1385.26V442.32H1366.63V470.58C1366.63 473.88 1367.47 476.16 1369.15 477.42C1370.83 478.68 1373.5 479.31 1377.16 479.31H1385.26V483ZM1394.81 463.2H1391.48C1391.48 459.3 1391.36 453.12 1391.12 444.66C1390.88 436.2 1390.76 430.98 1390.76 429V422.7H1395.53V429C1395.53 430.98 1395.41 436.2 1395.17 444.66C1394.93 453.12 1394.81 459.3 1394.81 463.2ZM1395.44 483H1390.94V471.75H1395.44V483Z" fill="black"/>
</g>
<g id="tale" filter="url(#filter6_d_255_38)">
<path d="M414.68 483H405.59C401.21 483 397.85 481.98 395.51 479.94C393.17 477.9 392 474.45 392 469.59V442.32H383.81V438.81H392V427.47H396.05V438.81H414.68V442.32H396.05V470.58C396.05 473.88 396.89 476.16 398.57 477.42C400.25 478.68 402.92 479.31 406.58 479.31H414.68V483ZM442.406 483.9C438.086 483.9 434.606 482.91 431.966 480.93C429.326 478.95 428.006 476.25 428.006 472.83C428.006 466.47 432.746 462.75 442.226 461.67L464.096 459.15V455.19C464.096 450.33 462.926 446.85 460.586 444.75C458.306 442.59 454.556 441.51 449.336 441.51C438.476 441.51 433.046 445.74 433.046 454.2V454.65H429.086V454.2C429.086 449.64 430.886 445.8 434.486 442.68C438.146 439.5 443.156 437.91 449.516 437.91C455.636 437.91 460.226 439.5 463.286 442.68C466.346 445.8 467.876 449.82 467.876 454.74V483H464.366V470.49H464.096C462.656 474.75 460.016 478.05 456.176 480.39C452.336 482.73 447.746 483.9 442.406 483.9ZM431.966 472.56C431.966 477.9 435.656 480.57 443.036 480.57C449.036 480.57 454.046 479.07 458.066 476.07C462.086 473.01 464.096 468.63 464.096 462.93V462.12L443.666 464.46C439.526 464.88 436.526 465.69 434.666 466.89C432.866 468.03 431.966 469.92 431.966 472.56ZM491.631 483H487.581V422.7H491.631V483ZM531.93 483.9C524.97 483.9 519.42 481.77 515.28 477.51C511.14 473.19 509.07 467.64 509.07 460.86C509.07 454.14 511.14 448.65 515.28 444.39C519.42 440.07 524.97 437.91 531.93 437.91C538.23 437.91 543.36 439.71 547.32 443.31C551.34 446.91 553.35 451.89 553.35 458.25C553.35 459.87 553.2 461.22 552.9 462.3H512.94C513.12 468 514.77 472.44 517.89 475.62C521.01 478.8 525.66 480.39 531.84 480.39C537.42 480.39 541.62 479.37 544.44 477.33C547.32 475.29 548.76 472.38 548.76 468.6V468.06H552.72V468.6C552.72 473.1 550.74 476.79 546.78 479.67C542.82 482.49 537.87 483.9 531.93 483.9ZM531.84 441.33C525.66 441.33 521.01 442.92 517.89 446.1C514.77 449.28 513.12 453.72 512.94 459.42H549.57C549.63 458.94 549.66 458.25 549.66 457.35C549.66 452.19 548.1 448.23 544.98 445.47C541.86 442.71 537.48 441.33 531.84 441.33Z" fill="#191919"/>
</g>
<g id="Genele" filter="url(#filter7_d_255_38)">
<path d="M72.49 483.9C64.03 483.9 57.07 481.05 51.61 475.35C46.15 469.65 43.42 462.15 43.42 452.85C43.42 443.55 46.18 436.05 51.7 430.35C57.28 424.65 64.36 421.8 72.94 421.8C80.38 421.8 86.59 423.78 91.57 427.74C96.61 431.7 99.13 436.89 99.13 443.31V444.12H94.9V443.31C94.9 437.79 92.98 433.47 89.14 430.35C85.3 427.23 79.9 425.67 72.94 425.67C65.02 425.67 58.81 428.04 54.31 432.78C49.81 437.52 47.56 444.21 47.56 452.85C47.56 461.49 49.78 468.18 54.22 472.92C58.72 477.6 64.93 479.94 72.85 479.94C80.05 479.94 85.57 478.32 89.41 475.08C93.25 471.84 95.17 467.07 95.17 460.77V457.44H69.97V454.02H99.13V483H95.71V469.77H95.35C93.79 474.63 90.94 478.2 86.8 480.48C82.72 482.76 77.95 483.9 72.49 483.9ZM130.176 483.9C123.216 483.9 117.666 481.77 113.526 477.51C109.386 473.19 107.316 467.64 107.316 460.86C107.316 454.14 109.386 448.65 113.526 444.39C117.666 440.07 123.216 437.91 130.176 437.91C136.476 437.91 141.606 439.71 145.566 443.31C149.586 446.91 151.596 451.89 151.596 458.25C151.596 459.87 151.446 461.22 151.146 462.3H111.186C111.366 468 113.016 472.44 116.136 475.62C119.256 478.8 123.906 480.39 130.086 480.39C135.666 480.39 139.866 479.37 142.686 477.33C145.566 475.29 147.006 472.38 147.006 468.6V468.06H150.966V468.6C150.966 473.1 148.986 476.79 145.026 479.67C141.066 482.49 136.116 483.9 130.176 483.9ZM130.086 441.33C123.906 441.33 119.256 442.92 116.136 446.1C113.016 449.28 111.366 453.72 111.186 459.42H147.816C147.876 458.94 147.906 458.25 147.906 457.35C147.906 452.19 146.346 448.23 143.226 445.47C140.106 442.71 135.726 441.33 130.086 441.33ZM165.039 483H160.989V438.81H164.499V452.76H164.859C165.759 448.68 167.889 445.2 171.249 442.32C174.609 439.38 178.839 437.91 183.939 437.91C189.939 437.91 194.589 439.8 197.889 443.58C201.189 447.36 202.839 452.1 202.839 457.8V483H198.789V457.53C198.789 452.43 197.499 448.5 194.919 445.74C192.339 442.92 188.409 441.51 183.129 441.51C177.369 441.51 172.899 443.31 169.719 446.91C166.599 450.51 165.039 455.49 165.039 461.85V483ZM234.766 483.9C227.806 483.9 222.256 481.77 218.116 477.51C213.976 473.19 211.906 467.64 211.906 460.86C211.906 454.14 213.976 448.65 218.116 444.39C222.256 440.07 227.806 437.91 234.766 437.91C241.066 437.91 246.196 439.71 250.156 443.31C254.176 446.91 256.186 451.89 256.186 458.25C256.186 459.87 256.036 461.22 255.736 462.3H215.776C215.956 468 217.606 472.44 220.726 475.62C223.846 478.8 228.496 480.39 234.676 480.39C240.256 480.39 244.456 479.37 247.276 477.33C250.156 475.29 251.596 472.38 251.596 468.6V468.06H255.556V468.6C255.556 473.1 253.576 476.79 249.616 479.67C245.656 482.49 240.706 483.9 234.766 483.9ZM234.676 441.33C228.496 441.33 223.846 442.92 220.726 446.1C217.606 449.28 215.956 453.72 215.776 459.42H252.406C252.466 458.94 252.496 458.25 252.496 457.35C252.496 452.19 250.936 448.23 247.816 445.47C244.696 442.71 240.316 441.33 234.676 441.33ZM269.629 483H265.579V422.7H269.629V483ZM301.827 483.9C294.867 483.9 289.317 481.77 285.177 477.51C281.037 473.19 278.967 467.64 278.967 460.86C278.967 454.14 281.037 448.65 285.177 444.39C289.317 440.07 294.867 437.91 301.827 437.91C308.127 437.91 313.257 439.71 317.217 443.31C321.237 446.91 323.247 451.89 323.247 458.25C323.247 459.87 323.097 461.22 322.797 462.3H282.837C283.017 468 284.667 472.44 287.787 475.62C290.907 478.8 295.557 480.39 301.737 480.39C307.317 480.39 311.517 479.37 314.337 477.33C317.217 475.29 318.657 472.38 318.657 468.6V468.06H322.617V468.6C322.617 473.1 320.637 476.79 316.677 479.67C312.717 482.49 307.767 483.9 301.827 483.9ZM301.737 441.33C295.557 441.33 290.907 442.92 287.787 446.1C284.667 449.28 283.017 453.72 282.837 459.42H319.467C319.527 458.94 319.557 458.25 319.557 457.35C319.557 452.19 317.997 448.23 314.877 445.47C311.757 442.71 307.377 441.33 301.737 441.33Z" fill="black"/>
</g>
<line id="linie" x1="378.994" y1="495" x2="557.994" y2="494" stroke="black" stroke-width="2"/>
<g id="cerc1" filter="url(#filter8_f_255_38)">
<circle cx="148.355" cy="771.355" r="116.065" transform="rotate(21.35 148.355 771.355)" fill="url(#paint5_radial_255_38)"/>
</g>
<g id="cerc4" filter="url(#filter9_f_255_38)">
<circle cx="1153.28" cy="731.281" r="168.5" transform="rotate(21.35 1153.28 731.281)" fill="url(#paint6_radial_255_38)"/>
</g>
</g>
<defs>
<filter id="filter0_f_255_38" x="411" y="667" width="127" height="127" filterUnits="userSpaceOnUse" color-interpolation-filters="sRGB">
<feFlood flood-opacity="0" result="BackgroundImageFix"/>
<feBlend mode="normal" in="SourceGraphic" in2="BackgroundImageFix" result="shape"/>
<feGaussianBlur stdDeviation="11.5" result="effect1_foregroundBlur_255_38"/>
</filter>
<filter id="filter1_f_255_38" x="75.9998" y="0" width="228" height="229" filterUnits="userSpaceOnUse" color-interpolation-filters="sRGB">
<feFlood flood-opacity="0" result="BackgroundImageFix"/>
<feBlend mode="normal" in="SourceGraphic" in2="BackgroundImageFix" result="shape"/>
<feGaussianBlur stdDeviation="9.5" result="effect1_foregroundBlur_255_38"/>
</filter>
<filter id="filter2_f_255_38" x="411.7" y="214.7" width="309.046" height="309.046" filterUnits="userSpaceOnUse" color-interpolation-filters="sRGB">
<feFlood flood-opacity="0" result="BackgroundImageFix"/>
<feBlend mode="normal" in="SourceGraphic" in2="BackgroundImageFix" result="shape"/>
<feGaussianBlur stdDeviation="4.5" result="effect1_foregroundBlur_255_38"/>
</filter>
<filter id="filter3_f_255_38" x="831" y="818" width="127" height="127" filterUnits="userSpaceOnUse" color-interpolation-filters="sRGB">
<feFlood flood-opacity="0" result="BackgroundImageFix"/>
<feBlend mode="normal" in="SourceGraphic" in2="BackgroundImageFix" result="shape"/>
<feGaussianBlur stdDeviation="11.5" result="effect1_foregroundBlur_255_38"/>
</filter>
<filter id="filter4_f_255_38" x="1061.29" y="7.29225" width="260.009" height="260.009" filterUnits="userSpaceOnUse" color-interpolation-filters="sRGB">
<feFlood flood-opacity="0" result="BackgroundImageFix"/>
<feBlend mode="normal" in="SourceGraphic" in2="BackgroundImageFix" result="shape"/>
<feGaussianBlur stdDeviation="9.5" result="effect1_foregroundBlur_255_38"/>
</filter>
<filter id="filter5_d_255_38" x="611.94" y="412.71" width="797.586" height="94.19" filterUnits="userSpaceOnUse" color-interpolation-filters="sRGB">
<feFlood flood-opacity="0" result="BackgroundImageFix"/>
<feColorMatrix in="SourceAlpha" type="matrix" values="0 0 0 0 0 0 0 0 0 0 0 0 0 0 0 0 0 0 127 0" result="hardAlpha"/>
<feOffset dx="-2" dy="7"/>
<feGaussianBlur stdDeviation="8"/>
<feComposite in2="hardAlpha" operator="out"/>
<feColorMatrix type="matrix" values="0 0 0 0 0 0 0 0 0 0 0 0 0 0 0 0 0 0 0.65 0"/>
<feBlend mode="normal" in2="BackgroundImageFix" result="effect1_dropShadow_255_38"/>
<feBlend mode="normal" in="SourceGraphic" in2="effect1_dropShadow_255_38" result="shape"/>
</filter>
<filter id="filter6_d_255_38" x="365.81" y="413.7" width="201.54" height="93.2" filterUnits="userSpaceOnUse" color-interpolation-filters="sRGB">
<feFlood flood-opacity="0" result="BackgroundImageFix"/>
<feColorMatrix in="SourceAlpha" type="matrix" values="0 0 0 0 0 0 0 0 0 0 0 0 0 0 0 0 0 0 127 0" result="hardAlpha"/>
<feOffset dx="-2" dy="7"/>
<feGaussianBlur stdDeviation="8"/>
<feComposite in2="hardAlpha" operator="out"/>
<feColorMatrix type="matrix" values="0 0 0 0 0 0 0 0 0 0 0 0 0 0 0 0 0 0 0.65 0"/>
<feBlend mode="normal" in2="BackgroundImageFix" result="effect1_dropShadow_255_38"/>
<feBlend mode="normal" in="SourceGraphic" in2="effect1_dropShadow_255_38" result="shape"/>
</filter>
<filter id="filter7_d_255_38" x="25.4199" y="412.8" width="311.827" height="94.1" filterUnits="userSpaceOnUse" color-interpolation-filters="sRGB">
<feFlood flood-opacity="0" result="BackgroundImageFix"/>
<feColorMatrix in="SourceAlpha" type="matrix" values="0 0 0 0 0 0 0 0 0 0 0 0 0 0 0 0 0 0 127 0" result="hardAlpha"/>
<feOffset dx="-2" dy="7"/>
<feGaussianBlur stdDeviation="8"/>
<feComposite in2="hardAlpha" operator="out"/>
<feColorMatrix type="matrix" values="0 0 0 0 0 0 0 0 0 0 0 0 0 0 0 0 0 0 0.65 0"/>
<feBlend mode="normal" in2="BackgroundImageFix" result="effect1_dropShadow_255_38"/>
<feBlend mode="normal" in="SourceGraphic" in2="effect1_dropShadow_255_38" result="shape"/>
</filter>
<filter id="filter8_f_255_38" x="24.2588" y="647.259" width="248.192" height="248.192" filterUnits="userSpaceOnUse" color-interpolation-filters="sRGB">
<feFlood flood-opacity="0" result="BackgroundImageFix"/>
<feBlend mode="normal" in="SourceGraphic" in2="BackgroundImageFix" result="shape"/>
<feGaussianBlur stdDeviation="4" result="effect1_foregroundBlur_255_38"/>
</filter>
<filter id="filter9_f_255_38" x="976.735" y="554.736" width="353.09" height="353.09" filterUnits="userSpaceOnUse" color-interpolation-filters="sRGB">
<feFlood flood-opacity="0" result="BackgroundImageFix"/>
<feBlend mode="normal" in="SourceGraphic" in2="BackgroundImageFix" result="shape"/>
<feGaussianBlur stdDeviation="4" result="effect1_foregroundBlur_255_38"/>
</filter>
<linearGradient id="paint0_linear_255_38" x1="447.135" y1="744.912" x2="503.872" y2="752.574" gradientUnits="userSpaceOnUse">
<stop offset="0.615385" stop-color="#E8B4B4"/>
<stop offset="1" stop-color="#B28A8A"/>
</linearGradient>
<linearGradient id="paint1_linear_255_38" x1="125.811" y1="148.484" x2="258.921" y2="166.366" gradientUnits="userSpaceOnUse">
<stop stop-color="#E8B4B4"/>
<stop offset="1" stop-color="#B28A8A"/>
</linearGradient>
<linearGradient id="paint2_linear_255_38" x1="566.223" y1="280.744" x2="550.494" y2="479.332" gradientUnits="userSpaceOnUse">
<stop offset="0.192308" stop-color="#E8B4B4"/>
<stop offset="0.581731" stop-color="#FFD9D9"/>
</linearGradient>
<linearGradient id="paint3_linear_255_38" x1="867.135" y1="895.912" x2="923.872" y2="903.574" gradientUnits="userSpaceOnUse">
<stop offset="0.615385" stop-color="#E8B4B4"/>
<stop offset="1" stop-color="#B28A8A"/>
</linearGradient>
<linearGradient id="paint4_linear_255_38" x1="1116.3" y1="176.797" x2="1271.8" y2="197.797" gradientUnits="userSpaceOnUse">
<stop stop-color="#E8B4B4"/>
<stop offset="1" stop-color="#B28A8A"/>
</linearGradient>
<radialGradient id="paint5_radial_255_38" cx="0" cy="0" r="1" gradientUnits="userSpaceOnUse" gradientTransform="translate(95.3164 828.182) rotate(2.68451) scale(137.363)">
<stop offset="0.620192" stop-color="#E8B4B4"/>
<stop offset="1" stop-color="#B28A8A"/>
</radialGradient>
<radialGradient id="paint6_radial_255_38" cx="0" cy="0" r="1" gradientUnits="userSpaceOnUse" gradientTransform="translate(1076.28 813.781) rotate(2.68451) scale(199.419)">
<stop offset="0.620192" stop-color="#E8B4B4"/>
<stop offset="1" stop-color="#B28A8A"/>
</radialGradient>
</defs>
</svg>
