<svg width="50vw" height="50vh" viewBox="0 0 1156 1024" fill="none" xmlns="http://www.w3.org/2000/svg">
<g id="Group 2">
<circle id="Ellipse" cx="410.97" cy="410.97" r="410.97" transform="matrix(-0.782136 0.623107 0.623107 0.782136 642.869 -66)" fill="url(#paint0_radial_270_42)"/>
<path id="ATENTIE" d="M300.168 552H294.024L333.192 466.24H341L380.168 552H374.024L361.352 524.736H312.712L300.168 552ZM332.296 482.368L315.144 519.488H358.92L341.768 482.368L337.16 471.872H336.648L332.296 482.368ZM433.727 552H428.095V471.488H391.615V466.24H470.079V471.488H433.727V552ZM551.588 552H488.868V466.24H551.588V471.488H494.628V506.304H549.668V511.424H494.628V546.752H551.588V552ZM580.213 552H574.453V466.24H580.853L630.645 530.496L640.629 543.552H641.141L641.013 530.624V466.24H646.645V552H640.373L591.221 488.64L580.597 474.816H580.085L580.213 488.64V552ZM707.607 552H701.975V471.488H665.495V466.24H743.959V471.488H707.607V552ZM768.508 552H762.748V466.24H768.508V552ZM857.053 552H794.333V466.24H857.053V471.488H800.093V506.304H855.133V511.424H800.093V546.752H857.053V552Z" fill="black"/>
</g>
<defs>
<radialGradient id="paint0_radial_270_42" cx="0" cy="0" r="1" gradientUnits="userSpaceOnUse" gradientTransform="translate(223.168 612.187) rotate(2.68451) scale(486.382)">
<stop offset="0.620192" stop-color="#E8B4B4"/>
<stop offset="1" stop-color="#B28A8A"/>
</radialGradient>
</defs>
</svg>
