<svg width="100vw" height="100vh" viewBox="0 0 1960 980" xmlns="http://www.w3.org/2000/svg">
<path id="stea" d="M983.228 415.05C983.998 412.394 984.577 409.682 985.211 406.992C985.702 404.907 986.836 398.667 986.955 400.807C987.039 402.322 987.348 403.938 988.081 405.279C989.561 407.985 991.673 410.95 992.348 413.987C992.389 414.172 992.163 413.881 992.11 413.844C991.18 413.2 990.108 412.69 989.097 412.195C985.968 410.664 982.863 410.039 979.406 409.784C977.523 409.645 974.562 410.236 972.792 409.562C971.859 409.206 974.708 409.001 975.678 408.769C979.659 407.815 984.314 408.483 988.367 408.483C991.328 408.483 994.288 408.483 997.249 408.483C999.395 408.483 997.499 408.403 996.615 408.673C994.824 409.221 993.025 410.605 991.476 411.624C989.366 413.011 986.871 414.086 984.989 415.763C984.174 416.49 982.317 417.7 982.086 418.856C982 419.288 982.796 418.276 983.228 418.19" stroke="#FFF29B" stroke-width="3" stroke-linecap="round"/>
<path id="stea2" d="M1200.73 536.956C1201.5 534.3 1202.08 531.588 1202.71 528.898C1203.2 526.813 1204.34 520.574 1204.46 522.713C1204.54 524.228 1204.85 525.844 1205.58 527.186C1207.06 529.891 1209.18 532.856 1209.85 535.893C1209.89 536.078 1209.67 535.787 1209.61 535.75C1208.68 535.107 1207.61 534.596 1206.6 534.101C1203.47 532.57 1200.37 531.945 1196.91 531.69C1195.03 531.551 1192.07 532.143 1190.29 531.468C1189.36 531.113 1192.21 530.907 1193.18 530.675C1197.16 529.722 1201.82 530.389 1205.87 530.389C1208.83 530.389 1211.79 530.389 1214.75 530.389C1216.9 530.389 1215 530.309 1214.12 530.58C1212.33 531.127 1210.53 532.511 1208.98 533.53C1206.87 534.917 1204.37 535.992 1202.49 537.67C1201.68 538.396 1199.82 539.607 1199.59 540.762C1199.5 541.195 1200.3 540.183 1200.73 540.096" stroke="#FFF29B" stroke-width="3" stroke-linecap="round"/>
<path id="stea3" d="M764.133 688.12C766.834 682.836 768.812 677.084 770.937 671.546C771.392 670.362 771.887 669.182 772.285 667.977C772.447 667.489 772.545 667.109 772.634 666.613C772.665 666.445 772.527 666.105 772.698 666.105C773.073 666.105 772.698 666.856 772.698 667.232C772.698 668.64 772.698 670.052 772.888 671.451C773.3 674.487 774.731 677.274 776.187 679.936C776.882 681.206 778.447 682.739 778.09 684.345C777.89 685.247 775.017 684.446 774.538 684.282C771.268 683.163 768.417 680.662 765.529 678.842C762.237 676.768 758.924 675.119 755.362 673.592C753.458 672.776 754.198 673.23 755.758 673.75C759.81 675.101 763.812 676.388 768.114 676.637C772.506 676.892 777.352 677.062 781.675 676.13C782.588 675.933 784.914 674.855 782.674 675.447C780.359 676.06 778.284 677.659 776.346 678.984C773.205 681.132 769.808 682.839 766.575 684.837C764.189 686.312 762.189 687.881 760.675 690.277C760.189 691.047 760.437 691.546 761.278 691.546" stroke="#FFF29B" stroke-width="3" stroke-linecap="round"/>
<path id="stea4" d="M1219.31 638.13C1222.01 632.846 1223.99 627.093 1226.11 621.555C1226.57 620.371 1227.06 619.192 1227.46 617.987C1227.62 617.499 1227.72 617.119 1227.81 616.623C1227.84 616.455 1227.7 616.115 1227.87 616.115C1228.25 616.115 1227.87 616.866 1227.87 617.241C1227.87 618.65 1227.88 620.061 1228.07 621.46C1228.48 624.496 1229.91 627.284 1231.36 629.946C1232.06 631.216 1233.62 632.748 1233.27 634.355C1233.07 635.256 1230.19 634.456 1229.71 634.292C1226.44 633.172 1223.59 630.671 1220.71 628.851C1217.41 626.778 1214.1 625.128 1210.54 623.602C1208.63 622.785 1209.38 623.24 1210.94 623.76C1214.99 625.111 1218.99 626.397 1223.29 626.647C1227.68 626.901 1232.53 627.072 1236.85 626.139C1237.76 625.942 1240.09 624.864 1237.85 625.457C1235.54 626.07 1233.46 627.669 1231.52 628.994C1228.38 631.142 1224.99 632.849 1221.75 634.847C1219.37 636.322 1217.37 637.891 1215.85 640.287C1215.37 641.057 1215.61 641.556 1216.46 641.556" stroke="#FFF29B" stroke-width="3" stroke-linecap="round"/>
<path id="stea5" d="M703.952 415.595C704.971 410.362 705.903 404.415 708.139 399.56C708.299 399.213 708.522 400.243 708.567 400.622C708.782 402.423 709.167 404.192 709.725 405.92C710.364 407.896 710.961 409.192 711.724 411.186C712.515 413.255 714.677 417.171 713.881 419.56C713.154 421.742 708.064 417.704 707.41 417.149C703.541 413.871 700.906 410.226 696.053 408.235C695.03 407.816 694.069 407.551 693.008 407.315C692.151 407.125 694.711 406.884 695.577 406.744C700.721 405.916 706.016 405.602 711.026 404.112C713.164 403.475 715.294 402.718 717.259 401.653C717.375 401.59 719.125 400.533 718.322 401.384C715.448 404.426 712.824 407.727 709.82 410.694C706.385 414.088 703.084 417.605 699.67 421.019" stroke="#FFF29B" stroke-width="3" stroke-linecap="round"/>
<path id="stea6" d="M716.23 537.501C717.25 532.268 718.181 526.321 720.418 521.466C720.577 521.119 720.801 522.149 720.846 522.528C721.06 524.33 721.445 526.099 722.004 527.826C722.643 529.802 723.24 531.098 724.002 533.092C724.793 535.161 726.956 539.077 726.159 541.466C725.432 543.648 720.342 539.61 719.688 539.055C715.819 535.778 713.184 532.132 708.332 530.142C707.308 529.722 706.347 529.457 705.286 529.222C704.43 529.031 706.99 528.79 707.856 528.651C713 527.822 718.294 527.509 723.304 526.018C725.442 525.382 727.572 524.624 729.537 523.559C729.654 523.497 731.404 522.439 730.6 523.29C727.727 526.332 725.102 529.633 722.099 532.6C718.664 535.994 715.362 539.511 711.948 542.925" stroke="#FFF29B" stroke-width="3" stroke-linecap="round"/>
<path id="stea6_2" d="M1107.38 610.295C1108.4 605.062 1109.34 599.115 1111.57 594.26C1111.73 593.913 1111.95 594.943 1112 595.322C1112.21 597.124 1112.6 598.893 1113.16 600.62C1113.8 602.596 1114.39 603.892 1115.16 605.886C1115.95 607.955 1118.11 611.871 1117.31 614.26C1116.59 616.442 1111.5 612.404 1110.84 611.849C1106.97 608.572 1104.34 604.926 1099.49 602.936C1098.46 602.516 1097.5 602.251 1096.44 602.016C1095.58 601.825 1098.14 601.584 1099.01 601.445C1104.15 600.616 1109.45 600.302 1114.46 598.812C1116.6 598.176 1118.73 597.418 1120.69 596.353C1120.81 596.291 1122.56 595.233 1121.75 596.084C1118.88 599.126 1116.26 602.427 1113.25 605.394C1109.82 608.788 1106.52 612.305 1103.1 615.719" stroke="#FFF29B" stroke-width="3" stroke-linecap="round"/>
<path id="stea" d="M970.537 397.365C954.354 377.073 908.331 331.096 937.171 302.256C953.796 285.631 970.762 305.907 979.269 319.406C983.136 325.544 986.255 331.819 989.481 338.272C990.589 340.487 991.882 347.036 992.989 344.821C994.678 341.444 993.86 334.766 995.094 330.788C996.802 325.286 999.425 320.415 1003.12 315.976C1009.78 307.991 1025.7 293.785 1037.19 302.723C1052 314.243 1040.23 347.127 1032.83 360.334C1026.55 371.518 1018.28 383.298 1009.2 392.375C1008.12 393.455 1000.82 402.22 1003.59 395.883C1005.87 390.678 1008.42 384.353 1008.42 378.577C1008.42 372.929 1003.46 388.728 1000.79 393.7C995.497 403.522 1010.93 397.365 1016.84 397.365" 
</svg>
